<svg width="16" height="16" viewBox="0 0 16 16" fill="none" xmlns="http://www.w3.org/2000/svg">
<path fillRule="evenodd" clipRule="evenodd" d="M7.24374 6.73207C7.24374 5.74413 8.03991 4.97345 8.99495 4.97345C9.97005 4.97345 10.7463 5.74413 10.7463 6.73207C10.7463 7.68057 9.97005 8.45134 8.99495 8.45134C8.03991 8.45134 7.24374 7.68057 7.24374 6.73207ZM15.0447 3.76805C16.3383 6.57401 15.5026 9.2616 14.5472 10.5263L16 15.9407H14.2688L12.5771 10.1114C13.6119 9.1035 14.3085 7.06806 13.7711 5.38834C13.3135 3.70876 11.8805 2.24631 9.89048 1.87088C7.70144 1.41625 5.67156 2.523 4.79594 4.02491C4.23882 4.89444 4.13933 5.68476 4.05976 6.67279C4.05976 6.67279 2.98515 9.2616 2.58696 10.2101H3.76113V14.1821H10.9054L11.4031 15.9803H1.99015V11.7514H0C0 11.7514 2.16914 6.83104 2.14929 6.67279C2.28859 4.91426 3.06476 2.77996 4.73625 1.47563C5.57218 0.8236 6.70637 0.210847 8.23885 0.0528201C9.89048 -0.125031 10.607 0.171387 11.6815 0.566736C13.5324 1.33723 14.786 3.07628 15.0447 3.76805ZM13.2538 5.32915C13.5324 6.39616 13.4926 7.00889 13.2936 7.83886C13.0547 8.78726 12.5373 9.51847 12.0396 9.93343L13.8309 16H12.0396C11.4627 13.767 10.7264 11.3167 10.1294 9.14295C10.4876 8.92569 11.5025 8.37226 11.6418 7.0286C11.801 5.78369 11.0248 4.7956 10.4876 4.4398C10.0098 4.14348 9.31354 3.9458 8.65671 4.06437C7.40297 4.20267 6.56718 5.19076 6.34824 6.25786C6.32839 6.39616 6.32839 6.45544 6.32839 6.67279C6.32839 6.67279 5.81086 8.03649 5.67156 8.45134H6.02995V11.9886H10.2688L10.786 13.7472H4.2587V9.79504L3.3632 9.75552C3.70145 8.80701 4.53734 6.67279 4.53734 6.67279C4.61684 5.90216 4.67652 4.41998 6.2687 3.19494C6.98514 2.58238 8.15932 2.1673 9.37312 2.28577C11.4428 2.523 12.7761 3.90634 13.2538 5.32915Z" fill="#2E5BAA"/>
</svg>
