<svg width="20" height="17" viewBox="0 0 20 17" fill="none" xmlns="http://www.w3.org/2000/svg">
<path d="M5.80702 5.12224C6.2075 4.96204 6.60798 4.72175 6.92837 4.40137C7.04852 4.96204 7.28881 5.48267 7.64924 5.96325C7.32886 6.0834 7.00847 6.24359 6.76818 6.48388C6.60798 5.96325 6.24755 5.48267 5.80702 5.12224ZM10.3725 2.71933C9.89195 2.67929 9.41137 2.75938 8.93079 2.91958C8.85069 2.15866 8.57036 1.43779 8.12982 0.83706C8.16987 0.797012 9.29123 0.35648 10.0121 0.476625C10.733 0.59677 10.4126 2.11861 10.3725 2.71933ZM11.0534 16.1756L11.4939 16.4559H7.80944C8.16987 16.2557 8.49026 16.0955 8.53031 15.9353C8.6905 15.2545 8.6905 14.4936 8.53031 13.8127C8.20992 13.172 7.64924 12.6914 6.96842 12.4511C6.72813 12.4911 6.48784 12.6113 6.24755 12.7314L6.64803 13.0118C6.2876 13.2521 5.96721 13.5724 5.76697 13.9729C5.56673 13.7326 5.32644 13.5324 5.08615 13.3322C5.28639 12.9317 5.60678 12.6113 6.00726 12.371L6.2075 12.5712C6.36769 12.4511 6.52789 12.3309 6.72813 12.2909C6.04731 12.0506 5.32644 11.8504 4.60557 11.7703V12.4911C3.8046 12.411 3.04368 12.4911 2.28276 12.7715C2.28276 12.6914 2.04247 11.57 2.32281 10.8892C2.60315 10.2084 4.12498 10.9293 4.76576 11.0494C4.72571 11.2096 4.68566 11.4098 4.64561 11.57C5.16624 11.4899 5.64682 11.4499 6.16745 11.4899C5.92716 11.1295 5.56673 10.8492 5.16624 10.689C4.72571 10.4887 4.36527 10.2484 4.00484 9.92805L3.40411 10.2484C3.28397 9.48751 2.88348 8.72659 2.36286 8.16592C2.96358 8.04577 3.52426 7.80548 4.04489 7.52514C4.12498 8.08582 4.24513 9.24722 4.64561 9.76785C4.40532 9.76785 4.20508 9.84795 4.00484 9.96809C4.40532 10.2484 4.8859 10.4487 5.36648 10.5688C5.32644 10.3686 5.32644 10.1683 5.36648 9.96809H5.08615C5.0461 9.60766 5.0461 9.28727 5.12619 8.92684C5.40653 8.88679 5.68687 8.92684 5.92716 9.00693C5.76697 9.32732 5.68687 9.64771 5.68687 10.0081H5.36648C5.36648 10.2484 5.40653 10.4487 5.52668 10.6489C6.04731 10.8091 6.52789 11.1695 6.80823 11.6501L7.88953 11.9305C7.88953 11.7302 7.84948 11.53 7.76939 11.3698L7.48905 11.4499C7.40895 11.0894 7.24876 10.7691 7.00847 10.5288C7.24876 10.4086 7.5291 10.2885 7.80944 10.2484C7.96963 10.5688 8.04973 10.8892 8.08978 11.2496H7.76939C7.88953 11.4499 7.96963 11.6501 8.00968 11.8904L8.65045 12.1708C8.73055 11.2096 8.41016 10.2885 7.80944 9.56761L7.16866 10.0882C6.96842 9.24722 5.72692 8.16592 5.72692 8.16592C6.2075 7.92563 6.64803 7.60524 7.04852 7.20475C7.80944 7.60524 8.37011 8.76664 8.49026 9.08703L7.88953 9.40742L8.6104 10.0081L8.89074 10.4086C9.05094 10.2885 9.17108 10.1283 9.29123 9.92805L8.89074 9.8079C9.17108 9.40742 9.33128 8.96688 9.41137 8.4863C9.69171 8.68654 10.0121 8.80669 10.3325 8.84674C10.2924 9.32732 10.1322 9.8079 9.8519 10.2084L9.45142 10.0081C9.37132 10.2484 9.25118 10.4887 9.05094 10.689C9.29123 11.2096 9.45142 11.8103 9.69171 12.371C11.1335 11.1695 10.733 8.88679 10.4526 7.84553L9.77181 8.36616C9.29123 7.60524 8.65045 7.00451 7.88953 6.56398C7.92958 6.52393 8.7706 5.48267 9.57157 5.28243C10.3725 5.08219 10.773 6.84432 11.1335 7.52514L10.6128 7.80548C10.9733 8.36616 11.2536 8.96688 11.3737 9.60766L12.0145 9.08703L11.7342 8.96688C11.9344 8.5664 12.2548 8.24601 12.6553 8.00572C12.8555 8.24601 13.0958 8.44625 13.3361 8.60645C12.9757 8.84674 12.6553 9.16713 12.455 9.56761L12.0946 9.20717C11.8143 9.56761 11.574 10.0081 11.4138 10.4487C11.4538 10.9293 11.4138 11.4499 11.2936 11.9305C11.6941 11.6902 12.1347 11.57 12.6152 11.53C12.7354 11.0494 13.0157 10.689 13.4563 10.4487L13.0157 9.92805C13.4963 9.44747 14.4174 8.5664 14.9381 8.44626C15.4186 8.88679 15.7791 9.40742 16.0194 10.0081C15.2584 10.1683 14.5376 10.5288 13.9368 11.0494L13.5764 10.5288C13.3361 10.8091 13.1759 11.1295 13.1359 11.4899C13.7366 11.4499 14.3774 11.4899 14.9781 11.57C15.0181 11.3297 15.0582 11.1295 15.0181 10.8892C15.3385 10.8492 16.6201 10.8892 17.341 11.4098C17.1808 11.9305 17.0606 12.4911 17.0606 13.0518C17.0606 13.0518 15.5788 12.411 14.7378 12.5712C14.8179 12.3309 14.898 12.0506 14.9381 11.8103C14.097 11.7302 13.256 11.8504 12.455 12.1708L13.256 12.3309C13.2961 12.2509 13.3361 12.1307 13.3361 12.0506C13.7766 12.1307 14.1771 12.371 14.4975 12.6914C14.2572 12.8916 14.097 13.172 14.0169 13.4523C13.6966 13.172 13.2961 12.9717 12.8555 12.8516L13.1359 12.411C12.7754 12.371 12.415 12.3309 12.0546 12.371L11.4138 12.8115C11.1735 13.0518 10.9733 13.3322 10.8531 13.6525C10.9733 13.8127 11.0133 14.013 11.0133 14.2132C11.0534 14.5336 10.8932 14.8139 10.6128 14.9741C10.6128 15.4147 10.773 15.8552 11.0534 16.1756ZM10.6529 14.1331C10.6929 13.9729 10.6128 13.8127 10.4526 13.7326C10.2924 13.7727 10.2123 13.9329 10.2123 14.0931C10.1723 14.2533 10.2524 14.4135 10.4126 14.4936C10.5728 14.4535 10.6929 14.2933 10.6529 14.1331ZM10.3725 13.4123C10.0922 13.4924 9.97205 13.8127 10.0521 14.2533C10.0121 13.9729 10.1322 13.6926 10.3325 13.4924C10.4526 13.4123 10.3725 13.3722 10.3725 13.3722V13.4123ZM7.92958 4.96204C7.56915 4.24117 7.04852 3.6004 6.40774 3.11982C6.44779 3.07977 7.32886 2.2788 8.04973 2.11861C8.7706 1.95842 9.01089 3.6805 9.21113 4.28122L8.53031 4.56156C8.6104 4.80185 8.6104 5.04214 8.53031 5.28243C8.49026 5.08219 8.45021 4.8419 8.37011 4.64166L7.92958 4.96204ZM2.52305 9.00693C2.36286 9.20717 2.32281 10.0882 2.36286 10.689C1.60194 10.4487 0.800968 10.3686 0 10.4086C0.160194 9.84795 0.24029 9.28727 0.160193 8.72659C0.520629 9.00693 1.96237 9.04698 2.52305 9.00693ZM6.16745 7.08461C5.60677 7.12466 5.08615 7.3249 4.60557 7.60524C4.56552 6.84432 3.84465 5.76301 3.48421 5.20234C4.20508 5.16229 5.48663 4.52151 5.48663 4.52151C5.32644 5.24238 5.72692 6.36374 6.16745 7.08461ZM12.1747 3.56035C11.7742 3.48025 11.3737 3.48025 10.9733 3.56035C10.8932 3.03972 10.8131 1.95842 11.0133 1.51788C11.5339 1.43779 12.0546 1.47783 12.5752 1.63803C12.2949 2.23875 12.1347 2.87953 12.1747 3.56035ZM5.48663 4.20113C5.48663 4.20113 4.80581 3.19992 4.24513 2.99967C4.56552 2.75938 4.84586 2.439 5.0461 2.11861C5.56673 2.39895 5.96721 2.79943 6.24755 3.32006C5.92716 3.56035 5.68687 3.88074 5.48663 4.20113ZM13.2961 6.96446C14.057 6.56398 14.8179 5.12224 14.8179 5.12224C15.1783 5.56277 15.5788 5.92321 16.0594 6.24359C15.8191 7.08461 14.858 7.92563 14.5776 8.08582C14.4575 7.92563 14.3373 7.76543 14.1771 7.64529C13.8567 7.96567 13.6165 8.40621 13.4963 8.84674C13.5764 8.36616 13.7766 7.92563 14.0169 7.52514L13.2961 6.96446ZM16.9004 11.0894C16.9805 10.8091 16.6201 9.888 16.2997 9.24722C17.2208 9.16713 18.1019 8.88679 18.9028 8.40621C18.9829 9.04698 19.1832 9.68776 19.5036 10.2484C19.023 10.1683 17.4611 10.7691 16.9004 11.0894ZM15.6589 7.68534C16.2997 7.28485 17.1808 6.44384 17.381 5.76301C17.7815 6.32369 18.2621 6.80427 18.8227 7.20475C18.2621 7.52514 17.1407 8.20596 16.7803 8.80669C16.4999 8.32611 16.1395 7.96567 15.6589 7.68534ZM12.455 4.48146C12.6953 4.00088 13.216 2.63924 13.1759 2.23875C13.6565 2.51909 14.2172 2.67929 14.7779 2.75938C14.4174 3.44021 14.1771 4.20113 14.097 4.96204C13.5764 4.68171 12.7354 4.36132 12.4951 4.44142L12.455 4.48146ZM11.9344 6.88437C11.8143 7.405 11.574 7.92563 11.2536 8.36616C11.4939 7.88558 11.614 7.36495 11.6541 6.80427L11.0133 6.64408C11.4138 6.12345 11.4939 4.96204 11.5339 4.40137C12.0946 4.68171 12.6553 4.88195 13.256 4.96204C12.7754 5.36253 12.4551 6.40379 12.375 7.12466L11.9344 6.88437ZM9.57157 3.72054C9.97205 3.72054 10.3325 3.64045 10.6929 3.48025C10.6929 4.04093 10.8131 4.56156 11.0133 5.08219C10.6128 5.08219 10.2524 5.16229 9.89195 5.32248C9.89195 4.7618 9.77181 4.24117 9.57157 3.72054ZM17.2208 4.08098C16.8203 4.40137 16.4599 4.80185 16.2596 5.28243C15.9793 5.08219 15.699 4.96204 15.3786 4.88195C15.5388 4.48146 15.8191 3.6805 16.0995 3.44021C16.4999 3.56035 16.9004 3.76059 17.2208 4.04093V4.08098ZM2.52305 7.16471C2.28276 6.52393 1.28155 5.76301 1.28155 5.76301C1.64198 5.52272 1.96237 5.28243 2.24271 4.96204C2.80339 5.28243 3.24392 5.72296 3.52426 6.28364C3.16382 6.52393 2.80339 6.80427 2.52305 7.16471Z" fill="#2B2B2B"/>
</svg>
