<svg width="93" height="93" viewBox="0 0 93 93" fill="none" xmlns="http://www.w3.org/2000/svg">
<path d="M26.8614 31.6805C21.5105 20.9483 25.873 7.91043 36.6051 2.55957C47.3373 -2.79129 60.3752 1.57113 65.726 12.3033L90.2635 61.5178C95.6143 72.25 91.2519 85.2878 80.5198 90.6387C69.7876 95.9895 56.7497 91.6271 51.3989 80.895L26.8614 31.6805Z" fill="white"/>
<path d="M61.3124 21.4878C61.3124 29.6982 54.6566 36.354 46.4462 36.354C38.2359 36.354 31.5801 29.6982 31.5801 21.4878C31.5801 13.2775 38.2359 6.62167 46.4462 6.62167C54.6566 6.62167 61.3124 13.2775 61.3124 21.4878Z" fill="black"/>
<path d="M16.0149 34.5307L2.55957 61.5178C-2.79129 72.25 1.57112 85.2878 12.3033 90.6387C22.3113 95.6285 34.3245 92.1716 40.2392 82.9793L16.0149 34.5307Z" fill="white"/>
</svg>
