<svg width="111" height="176" viewBox="0 0 111 176" fill="none" xmlns="http://www.w3.org/2000/svg">
<path d="M54.9456 1.03613e-05C62.5365 1.10249e-05 70.6689 1.42648 77.3428 4.27943C83.9657 7.13238 89.7989 11.0552 94.8425 16.0479C99.8352 20.9896 103.783 26.7719 106.687 33.3948C109.54 39.9668 110.967 46.9973 110.967 54.4863L110.967 175.777L92.4736 175.777L92.4736 54.4863C92.4736 49.5445 91.5311 44.883 89.6461 40.5017C87.7102 36.1204 85.0865 32.274 81.775 28.9626C78.4126 25.6511 74.5408 23.0529 70.1594 21.1679C65.7272 19.2829 59.9892 18.3404 54.9456 18.3404C49.953 18.3404 45.266 19.2829 40.8847 21.1679C36.4524 23.0529 32.5805 25.6511 29.2691 28.9625C25.9067 32.274 23.283 36.1204 21.398 40.5017C19.4621 44.883 18.4941 49.5445 18.4941 54.4863L18.4941 175.777L0.000862122 175.777L0.000872725 54.4863C0.00087338 46.9973 1.42734 39.9668 4.28029 33.3948C7.13324 26.7719 11.0815 20.9896 16.1251 16.0478C21.1687 11.0552 27.0275 7.13238 33.7013 4.27943C40.3243 1.42648 47.4057 9.7021e-06 54.9456 1.03613e-05Z" fill="white"/>
</svg>
