<svg width="145" height="141" viewBox="0 0 145 141" fill="none" xmlns="http://www.w3.org/2000/svg">
<path fillRule="evenodd" clipRule="evenodd" d="M105.521 122.534H144.125C144.189 120.945 144.247 119.36 144.247 117.755C144.247 53.021 91.8244 0.351538 27.3594 0.273438V38.9994C70.6154 39.0266 105.674 74.321 105.674 117.748C105.68 119.36 105.616 120.952 105.521 122.534Z" fill="#65A300"/>
<path d="M37.587 140.524C45.022 140.524 52.289 138.314 58.47 134.174C64.651 130.034 69.469 124.15 72.314 117.265C75.159 110.381 75.903 102.805 74.453 95.4969C73.003 88.1879 69.423 81.475 64.166 76.205C58.909 70.936 52.212 67.3479 44.921 65.8939C37.629 64.4399 30.072 65.186 23.203 68.038C16.335 70.89 10.465 75.7189 6.334 81.9149C2.204 88.1109 0 95.395 0 102.847C0 112.84 3.95999 122.423 11.009 129.489C18.058 136.555 27.619 140.524 37.587 140.524Z" fill="#65A300"/>
</svg>
