<svg width="16" height="24" viewBox="0 0 16 24" fill="none" xmlns="http://www.w3.org/2000/svg">
<path d="M2.39207 18.6166C2.37884 16.8812 3.41466 16.0551 3.58217 15.95C3.62345 15.9253 3.64143 15.9522 3.62167 15.9828C3.60192 16.0134 2.74683 16.9856 3.08579 18.6099C3.24855 19.3724 3.66608 20.0569 4.26968 20.5504C4.87327 21.044 5.62694 21.3174 6.40662 21.3255C8.55019 21.3091 9.88094 19.5367 9.86968 18.1058C9.83887 14.0305 5.21592 12.8798 5.18392 8.70939C5.17108 7.03792 5.95191 5.25135 7.6307 3.51706C7.63645 3.51114 7.64383 3.50704 7.65189 3.50529C7.65996 3.50355 7.66836 3.5042 7.67604 3.50722C7.68373 3.51024 7.69034 3.5155 7.69507 3.52227C7.69979 3.52904 7.70242 3.53697 7.7026 3.54522C7.84482 8.52094 15.7394 8.63656 15.7977 16.2791C15.8109 18.0067 14.9416 19.6839 14.8655 19.8312C14.7895 19.9786 14.6945 19.9892 14.7316 19.8312C14.8869 19.2847 14.9546 18.4746 14.9459 17.3357C14.9043 11.88 7.53134 11.0509 7.34784 6.53659C7.34677 6.52849 7.34321 6.52098 7.33766 6.51499C7.33211 6.50899 7.32484 6.50481 7.31684 6.50312C7.30885 6.50143 7.30052 6.5023 7.29302 6.50553C7.28552 6.50877 7.2792 6.51428 7.27495 6.52125C7.09717 6.9447 7.01191 7.40119 7.02488 7.86026C7.05016 11.1787 13.4759 13.4586 13.5147 18.5288C13.5358 21.2859 11.1969 23.9785 7.92462 24.0032H7.88037C4.6026 24.006 2.41202 21.1821 2.39207 18.6166ZM0.709926 19.4956C0.294922 18.6143 0.0550308 17.6607 0.00356914 16.688C-0.142009 13.3821 4.21584 11.6941 3.91599 9.3421C3.91578 9.33394 3.91812 9.32593 3.92266 9.31915C3.92719 9.31236 3.93372 9.30712 3.94134 9.3042C3.94896 9.30127 3.9573 9.30084 3.96521 9.30285C3.97313 9.30486 3.98023 9.30927 3.98553 9.31548C4.33337 9.82214 4.71361 10.7198 4.67865 11.2808C4.4989 14.1503 0.422322 15.0775 0.780044 19.4763C0.780403 19.4814 0.779692 19.4866 0.777947 19.4914C0.776201 19.4963 0.773456 19.5006 0.769905 19.5044C0.766354 19.5081 0.76207 19.511 0.757318 19.5129C0.752567 19.5149 0.747461 19.5159 0.742321 19.5157C0.735572 19.5158 0.728953 19.5139 0.723248 19.5103C0.717543 19.5067 0.712984 19.5015 0.710119 19.4954L0.709926 19.4956ZM15.9022 12.8115C15.5427 9.4614 10.9922 7.38663 10.9922 4.96968C11.0151 4.4003 11.1652 3.84319 11.4315 3.3394C11.4362 3.32979 11.4441 3.32216 11.4538 3.3177C11.4635 3.31323 11.4744 3.3123 11.4848 3.315C11.4951 3.3177 11.5042 3.32381 11.5105 3.33246C11.5168 3.3411 11.5198 3.35169 11.5192 3.36236C11.381 5.9713 16.3962 7.22068 15.9749 12.8101C15.9739 12.819 15.9698 12.8272 15.9632 12.8332C15.9566 12.8392 15.9481 12.8426 15.9392 12.8427C15.9303 12.8429 15.9217 12.8398 15.9149 12.834C15.9081 12.8283 15.9035 12.8203 15.9022 12.8115ZM4.29801 8.24682C3.59916 5.70761 1.13757 6.14533 1.29283 3.19347C1.29325 3.18594 1.29588 3.17868 1.3004 3.17264C1.30492 3.1666 1.31112 3.16205 1.31823 3.15952C1.32534 3.15699 1.33304 3.15664 1.34037 3.15846C1.34769 3.16029 1.3543 3.16417 1.35939 3.16975C2.63562 4.54197 4.74975 4.95881 4.36655 8.24152C4.36571 8.25015 4.36164 8.25815 4.35516 8.2639C4.34867 8.26965 4.34025 8.27267 4.33159 8.27248C4.32415 8.27265 4.31688 8.27041 4.31088 8.26602C4.30488 8.26163 4.30049 8.25531 4.29841 8.24818L4.29801 8.24682ZM9.76124 5.92346C7.71919 2.10881 10.324 1.74497 10.5699 0.0302331C10.5709 0.0227755 10.5743 0.0158434 10.5796 0.010461C10.5848 0.00507865 10.5917 0.00160617 10.5991 0.00043033C10.6065 -0.000745514 10.6141 0.000502644 10.6208 0.00399895C10.6275 0.00749525 10.6328 0.0130326 10.6361 0.0198166C11.7531 2.29514 9.20973 2.95583 9.83155 5.898C9.83275 5.90356 9.83267 5.90935 9.83132 5.91488C9.82996 5.9204 9.82737 5.92555 9.82373 5.92993C9.8201 5.9343 9.81552 5.9378 9.81034 5.94015C9.80516 5.94249 9.79951 5.94359 9.79382 5.94343C9.78728 5.94352 9.78084 5.94187 9.77517 5.93861C9.76951 5.93534 9.76483 5.93062 9.76163 5.92491L9.76124 5.92346Z" fill="white"/>
</svg>
