<svg width="328" height="225" viewBox="0 0 328 225" fill="none" xmlns="http://www.w3.org/2000/svg">
<path fillRule="evenodd" clipRule="evenodd" d="M78.0627 165.097C114.303 140.621 144.101 122.939 185.862 108.433C217.096 97.583 254.971 89.0699 288.27 87.1767L327.742 85.4196C327.924 83.1055 275.755 67.2885 270.491 65.9335C207.316 49.6708 129.32 49.2371 67.1439 67.3972C62.9618 75.3509 54.939 85.5702 49.8749 94.0961C44.065 103.878 39.9349 113.178 35.0356 123.305C34.1483 125.14 33.884 126.586 34.0735 127.819C34.548 130.9 37.8571 132.649 41.3696 135.797C48.8651 142.514 71.02 162.839 78.0627 165.097Z" fill="#F78B1F"/>
<path fillRule="evenodd" clipRule="evenodd" d="M142.579 34.498C160.435 34.2138 177.782 34.6369 195.5 36.8734C203.231 37.8496 250.981 42.9605 285.718 57.4342C287.501 55.9127 243.448 32.8029 239.769 31.0444C223.311 23.1807 204.592 16.1897 187.071 11.1217C171.617 6.6515 158.849 3.90333 143.311 0.85609C135.661 -0.644146 135.386 -0.514106 129.586 4.11168C117.394 13.8374 101.434 26.5968 91.6484 38.5615C108.978 37.1615 124.908 34.7794 142.579 34.498Z" fill="#005594"/>
<path fillRule="evenodd" clipRule="evenodd" d="M44.3707 193.185C49.8185 188.359 55.0726 183.631 60.627 178.915C66.0143 174.342 73.1544 169.706 78.0622 165.099C71.0196 162.841 48.8647 142.515 41.3691 135.799C37.8567 132.651 34.5476 130.901 34.0735 127.821C33.8836 126.588 34.1479 125.142 35.0351 123.307C39.9345 113.18 44.0646 103.88 49.8745 94.0979C54.9386 85.5719 62.9614 75.3527 67.1435 67.399C47.8693 71.0143 19.6012 83.5774 0.957031 91.3121C2.77298 96.1739 17.3391 112.064 21.6829 116.444C28.2738 123.089 29.6986 125.233 32.0166 128.068C21.1142 156.325 14.1374 183.922 13.9224 224.362C15.0261 225.119 26.4735 210.675 28.6905 208.538C33.9569 203.462 38.8764 198.052 44.3707 193.185Z" fill="#F6BF86"/>
</svg>
