<svg width="16" height="16" viewBox="0 0 16 16" fill="none" xmlns="http://www.w3.org/2000/svg">
<g clip-path="url(#clip0_332_62)">
<path d="M3.85244 4.1467C3.75869 4.05307 3.6316 4.00047 3.4991 4.00047C3.3666 4.00047 3.23952 4.05307 3.14577 4.1467L0.26577 7.32203C0.0949304 7.50622 0 7.74815 0 7.99937C0 8.25058 0.0949304 8.49252 0.26577 8.6767V8.6787L3.14644 11.854C3.21648 11.9237 3.30559 11.9711 3.40254 11.9902C3.49948 12.0093 3.5999 11.9992 3.69113 11.9613C3.78236 11.9233 3.86029 11.8592 3.91511 11.777C3.96992 11.6948 3.99915 11.5982 3.9991 11.4994V4.49937C3.99899 4.3668 3.94623 4.24038 3.85244 4.1467ZM7.9991 15.5214C7.99927 15.5866 8.01273 15.6511 8.03866 15.711C8.0646 15.7708 8.10246 15.8248 8.14994 15.8695C8.19742 15.9142 8.25352 15.9488 8.31481 15.9712C8.37611 15.9935 8.44131 16.0031 8.50644 15.9994C12.6884 15.7354 15.9998 12.2554 15.9998 8.00003C15.9991 3.7447 12.6871 0.263368 8.50577 0.000701231C8.44058 -0.00341031 8.37525 0.00591897 8.31382 0.0281101C8.25239 0.0503013 8.19617 0.0848807 8.14866 0.129703C8.10115 0.174524 8.06336 0.228632 8.03763 0.288668C8.01191 0.348703 7.99879 0.413386 7.9991 0.478701V3.48003C8.00024 3.61442 8.0506 3.74373 8.14065 3.84349C8.2307 3.94324 8.3542 4.00653 8.48777 4.02137C9.45628 4.14218 10.3471 4.6131 10.9924 5.34537C11.6386 6.07822 11.9951 7.02167 11.9951 7.9987C11.9951 8.97573 11.6386 9.91918 10.9924 10.652C10.3471 11.3843 9.45628 11.8552 8.48777 11.976C8.35385 11.9905 8.22994 12.0537 8.13968 12.1537C8.04942 12.2536 7.99914 12.3833 7.99844 12.518V15.5214H7.9991Z" fill="#00A868"/>
</g>
<defs>
<clipPath id="clip0_332_62">
<rect width="16" height="16" fill="white"/>
</clipPath>
</defs>
</svg>
