<svg width="260" height="272" viewBox="0 0 260 272" fill="none" xmlns="http://www.w3.org/2000/svg">
<circle r="130" transform="matrix(-1 0 0 1 130 142)" fill="#F6F6F6"/>
<path d="M132.862 176.68C134.782 174.472 136.174 172.264 137.038 170.056C137.902 167.848 138.334 165.016 138.334 161.56C138.334 159.064 137.854 156.76 136.894 154.648C136.03 152.536 134.686 150.712 132.862 149.176C131.038 147.544 128.782 146.296 126.094 145.432C123.502 144.568 120.43 144.136 116.878 144.136L115.582 139.672L123.07 135.064C127.678 132.472 130.894 129.592 132.718 126.424C134.542 123.256 135.454 119.176 135.454 114.184C135.454 109.672 134.542 106.216 132.718 103.816C130.894 101.32 128.59 100.072 125.806 100.072C124.942 100.072 124.03 100.216 123.07 100.504C122.206 100.696 121.438 100.936 120.766 101.224L115.726 121.384H96.7184V103.384L133.15 91.288C138.334 91.288 142.654 91.816 146.11 92.872C149.662 93.832 152.494 95.176 154.606 96.904C156.814 98.632 158.35 100.6 159.214 102.808C160.174 105.016 160.654 107.32 160.654 109.72C160.654 112.216 160.174 114.568 159.214 116.776C158.35 118.984 156.862 121.048 154.75 122.968C152.638 124.888 149.854 126.616 146.398 128.152C143.038 129.688 138.91 131.032 134.014 132.184C139.678 132.376 144.43 133.288 148.27 134.92C152.206 136.552 155.326 138.52 157.63 140.824C160.03 143.128 161.758 145.624 162.814 148.312C163.87 151 164.398 153.496 164.398 155.8C164.398 160.024 163.63 163.576 162.094 166.456C160.558 169.336 158.398 171.832 155.614 173.944C152.926 176.152 149.662 178.12 145.822 179.848C142.078 181.672 137.902 183.592 133.294 185.608L109.966 196.12H96.5744V176.68H132.862Z" fill="#F9F9F9"/>
<path fill-rule="evenodd" clip-rule="evenodd" d="M124.223 156.918L103.255 177.887C100.802 180.339 95.4159 179.097 91.4898 175.171C87.5654 171.247 86.3216 165.859 88.7741 163.406L109.743 142.438C109.288 141.385 108.916 140.324 108.63 139.256L86.6267 161.259C82.8893 164.996 84.0854 172.047 89.3496 177.311C94.6137 182.576 101.665 183.772 105.402 180.034L127.405 158.032C126.337 157.745 125.275 157.371 124.223 156.918Z" fill="#119737"/>
<path fill-rule="evenodd" clip-rule="evenodd" d="M127.154 120.73L111.146 136.738L111.315 137.542C112.159 141.538 114.453 145.569 117.774 148.889C121.093 152.208 125.124 154.502 129.12 155.346L129.923 155.515L145.931 139.507L143.19 138.926C139.765 138.2 136.277 136.199 133.371 133.293C130.463 130.385 128.461 126.897 127.736 123.471L127.154 120.73ZM125.511 126.666C126.65 129.785 128.624 132.827 131.23 135.433C133.835 138.037 136.878 140.01 139.993 141.148L128.95 152.191C125.782 151.345 122.599 149.433 119.914 146.749C117.227 144.061 115.317 140.88 114.468 137.708L125.511 126.666Z" fill="#173048"/>
<path fill-rule="evenodd" clip-rule="evenodd" d="M173.621 97.2108C169.251 92.8409 163.512 92.7092 160.895 95.326C159.091 97.1296 159.259 101.162 162.381 104.283C165.503 107.405 169.531 107.57 171.335 105.766C171.925 105.176 171.924 104.215 171.332 103.622C170.738 103.028 169.776 103.027 169.186 103.617C168.623 104.18 166.427 104.046 164.523 102.141C162.617 100.236 162.481 98.0377 163.044 97.475C164.413 96.1056 168.286 96.1561 171.481 99.3511C174.674 102.545 174.725 106.417 173.355 107.786C170.195 110.946 164.54 110.244 160.48 106.185C156.418 102.123 155.715 96.4658 158.875 93.3058L158.982 93.1985L156.835 91.051L129.711 118.175L130.461 121.72L153.874 98.3068C153.876 101.721 155.392 105.378 158.339 108.325C161.283 111.269 164.94 112.785 168.354 112.787L144.941 136.2L148.487 136.952L175.612 109.828L175.597 109.813C178.105 107.146 177.931 101.52 173.621 97.2108Z" fill="#119737"/>
<path fill-rule="evenodd" clip-rule="evenodd" d="M148.777 162.292C148.592 162.478 148.359 162.616 148.095 162.684C147.574 162.823 147.017 162.672 146.633 162.289L137.04 152.695L139.18 150.555L146.92 158.295L149.187 149.899C149.327 149.38 149.731 148.976 150.25 148.835L158.647 146.57L150.906 138.829L153.048 136.687L162.641 146.28C163.025 146.664 163.176 147.221 163.035 147.744C162.894 148.27 162.487 148.673 161.97 148.816L151.887 151.536L149.167 161.618C149.097 161.877 148.961 162.108 148.777 162.292Z" fill="#173048"/>
</svg>
