<svg width="260" height="260" viewBox="0 0 260 260" fill="none" xmlns="http://www.w3.org/2000/svg">
<circle r="130" transform="matrix(-1 0 0 1 130 130)" fill="#F9F9F9"/>
<mask id="mask0" mask-type="alpha" maskUnits="userSpaceOnUse" x="0" y="0" width="260" height="260">
<circle r="130" transform="matrix(-1 0 0 1 130 130)" fill="white"/>
</mask>
<g mask="url(#mask0)">
<path d="M-41.308 298.621H70.9647C81.2124 298.621 89.501 290.332 89.501 280.084V278.125C89.501 267.878 81.2124 259.589 70.9647 259.589H-41.308C-51.5557 259.589 -59.8443 267.878 -59.8443 278.125V280.084C-59.8443 290.332 -51.5557 298.621 -41.308 298.621Z" fill="white"/>
<path d="M-40.2506 299.827H70.063C81.5163 299.827 90.8599 290.484 90.8599 279.03C90.8599 267.577 81.5163 258.233 70.063 258.233H-40.2506C-51.7039 258.233 -61.0475 267.577 -61.0475 279.03C-61.0475 290.484 -51.7039 299.827 -40.2506 299.827ZM70.063 260.645C80.16 260.645 88.4486 268.933 88.4486 279.03C88.4486 289.127 80.16 297.416 70.063 297.416H-40.2506C-50.3476 297.416 -58.6362 289.127 -58.6362 279.03C-58.6362 268.933 -50.3476 260.645 -40.2506 260.645H70.063Z" fill="#2B2B2B"/>
<path d="M-29.7012 223.423H8.57696C25.1541 223.423 38.7173 210.01 38.7173 193.282V168.567C38.7173 151.99 25.3048 138.427 8.57696 138.427H-29.7012C-46.2784 138.427 -59.8415 151.839 -59.8415 168.567V193.282C-59.8415 210.01 -46.4291 223.423 -29.7012 223.423Z" fill="white"/>
<path d="M-28.1949 224.626H6.76779C25.0027 224.626 39.7715 209.858 39.7715 191.623V170.072C39.7715 151.838 25.0027 137.069 6.76779 137.069H-28.1949C-46.4298 137.069 -61.1986 151.838 -61.1986 170.072V191.774C-61.0479 209.858 -46.2791 224.626 -28.1949 224.626ZM6.76779 139.631C23.6464 139.631 37.3603 153.345 37.3603 170.223V191.774C37.3603 208.652 23.6464 222.366 6.76779 222.366H-28.1949C-45.0735 222.366 -58.7874 208.652 -58.7874 191.774V170.223C-58.7874 153.345 -45.0735 139.631 -28.1949 139.631H6.76779Z" fill="#2B2B2B"/>
<path d="M-15.6848 118.834C-10.7117 113.559 -3.62873 110.696 3.30354 109.189C7.22178 108.435 11.2907 108.285 15.0583 107.23C21.0863 105.421 23.9496 101.051 27.1144 95.9271C31.1833 88.9948 42.9381 93.9679 38.7184 101.051C38.417 101.503 38.2663 101.804 37.9649 102.256C38.2663 102.407 38.5678 102.558 38.8692 102.859C40.6776 103.613 42.1846 105.12 43.3902 107.832C43.6916 108.285 43.8423 108.737 43.993 109.339C47.4591 109.49 50.9253 112.052 50.7746 116.422C49.2675 146.563 14.6062 169.319 -12.6708 152.44C-24.5762 144.754 -25.0283 128.629 -15.6848 118.834Z" fill="#2B2B2B"/>
<path d="M89.5046 170.826C104.424 190.869 110.151 161.633 135.016 158.016C144.812 156.66 149.936 157.414 152.347 159.071C144.511 159.373 136.523 162.688 130.345 167.058C121.755 173.237 119.193 183.485 119.946 193.582C119.946 194.185 120.097 194.637 120.248 195.089C117.234 204.885 105.63 216.187 89.3539 213.625C56.3502 208.501 47.7602 166.757 47.7602 166.757L34.7999 128.78C59.2135 127.725 74.7358 150.783 89.5046 170.826Z" fill="white"/>
<path d="M94.1763 215.284C108.794 215.284 118.891 204.282 121.604 195.542L121.755 195.09L121.604 194.638C121.453 194.185 121.303 193.884 121.303 193.583C120.7 185.595 122.056 174.745 131.249 168.114C137.88 163.292 145.566 160.428 152.498 160.278L156.115 160.127L153.101 158.017C149.936 155.907 143.757 155.455 134.866 156.661C123.865 158.318 116.631 164.648 110.754 169.772C106.082 173.69 102.465 176.855 98.8481 176.553C96.2862 176.252 93.5736 174.142 90.5595 170.073L87.9976 166.607C74.133 147.769 58.3094 126.52 35.1014 127.575H33.4436L46.8561 167.059C46.8561 167.361 55.8982 209.406 89.354 214.681C91.0117 215.133 92.5186 215.284 94.1763 215.284ZM119.193 195.24C116.179 203.981 105.328 214.982 89.806 212.571C58.008 207.598 49.418 167.059 49.2673 166.607L36.759 129.987C58.008 129.987 72.3246 149.427 86.0385 168.114L88.6004 171.58C92.0666 176.252 95.2313 178.663 98.5467 178.965C103.218 179.417 107.438 175.8 112.261 171.731C117.987 166.758 124.919 160.73 135.167 159.223C140.291 158.469 144.059 158.469 146.621 158.62C140.894 159.825 135.017 162.387 129.742 166.155C121.905 171.882 117.987 181.677 118.741 193.733C118.891 194.185 119.042 194.638 119.193 195.24Z" fill="#2B2B2B"/>
<path d="M89.5024 170.828C94.4755 177.911 107.285 166.759 114.368 166.156C114.067 176.705 111.354 193.735 117.684 200.968C112.71 208.805 102.613 215.737 89.653 213.627C56.6494 208.504 48.0594 166.759 48.0594 166.759L35.0991 128.782C62.2254 127.275 75.1857 150.483 89.5024 170.828Z" fill="#6045AF"/>
<path d="M94.1767 215.284C105.63 215.284 114.22 208.502 118.59 201.72L119.042 200.967L118.44 200.364C113.768 194.939 114.521 182.883 115.124 173.238C115.275 170.827 115.426 168.415 115.426 166.306V164.949L114.069 165.1C111.357 165.401 108.192 166.908 104.726 168.566C97.7936 171.882 92.8204 173.841 90.2585 170.375C88.9022 168.415 87.3952 166.306 86.0389 164.346C73.2292 145.659 59.8168 126.37 34.8003 127.877L33.2933 128.027L46.7057 167.511C46.7057 167.813 55.7478 209.858 89.2036 215.133C91.012 215.133 92.6697 215.284 94.1767 215.284ZM116.179 201.118C111.357 208.05 102.164 214.53 89.8064 212.571C58.0084 207.598 49.4184 167.059 49.2676 166.607L36.7594 129.987C59.5154 129.534 71.5715 147.016 84.3811 165.552C85.7374 167.662 87.2445 169.621 88.6008 171.58C92.3684 177.005 99.602 173.539 105.932 170.525C108.493 169.32 111.055 168.114 113.014 167.511C113.014 169.169 112.864 170.977 112.713 172.936C112.261 182.581 111.507 194.638 116.179 201.118Z" fill="#6045AF"/>
<path d="M55.5 238C30.6342 238.151 -3.32955 233.367 -28.1953 234.573C-27.4418 220.859 -14.6322 163.743 -1.97329 151.687C12.6448 137.823 19.7278 130.137 35.0994 128.931C48.8132 127.876 67.5002 146.262 59.3623 183.184C52.1286 215.585 53.6916 225.341 55.5 238Z" fill="#6045AF"/>
<path d="M59.3626 184.239C59.8147 184.239 60.1162 184.088 60.4176 183.636C60.5683 183.485 69.0076 170.223 60.4176 157.112C60.1162 156.51 59.3626 156.359 58.7598 156.811C58.157 157.112 58.0063 157.866 58.4585 158.469C66.1442 170.223 58.7599 181.827 58.4585 182.28C58.1571 182.882 58.3077 183.636 58.7598 183.937C58.9105 184.239 59.0612 184.239 59.3626 184.239Z" fill="white"/>
<path d="M135.771 220.105L201.929 174.895L162.897 154.249C160.637 153.043 157.924 153.194 155.814 154.701L102.466 191.17C98.0953 194.184 98.5474 200.514 103.068 203.076L135.771 220.105Z" fill="#2B2B2B"/>
<path d="M135.769 220.105L201.927 174.895L243.822 170.675C245.781 170.525 246.836 173.087 245.179 174.292L186.104 215.584C186.104 215.584 185.953 215.735 185.802 215.886C183.391 217.544 180.528 218.448 177.514 218.598L135.769 220.105Z" fill="#2B2B2B"/>
<path d="M157.622 210.008L199.818 181.224L226.492 178.511C227.848 178.361 228.451 180.018 227.396 180.772L189.721 207.145C189.721 207.145 189.57 207.295 189.42 207.295C187.913 208.35 186.104 208.953 184.145 208.953L157.622 210.008Z" fill="white"/>
<path d="M141.497 211.214C141.648 211.214 141.949 211.214 142.1 211.063L150.087 206.391C150.69 206.09 150.841 205.336 150.539 204.733C150.238 204.131 149.484 203.98 148.882 204.281L140.894 208.953C140.291 209.255 140.141 210.008 140.442 210.611C140.744 211.063 141.045 211.214 141.497 211.214Z" fill="white"/>
<path d="M141.797 199.459C142.099 199.459 142.249 199.459 142.4 199.309L153.703 191.773C154.306 191.472 154.456 190.719 154.004 190.116C153.703 189.513 152.949 189.362 152.347 189.814L141.044 197.349C140.441 197.651 140.29 198.404 140.742 199.007C141.044 199.309 141.345 199.459 141.797 199.459Z" fill="white"/>
<path d="M114.37 196.597C114.672 196.597 114.822 196.597 114.973 196.446L126.276 188.911C126.878 188.61 127.029 187.856 126.577 187.253C126.276 186.65 125.522 186.5 124.919 186.952L113.617 194.487C113.014 194.788 112.863 195.542 113.315 196.145C113.617 196.446 113.918 196.597 114.37 196.597Z" fill="white"/>
<path d="M172.24 186.197C172.541 186.197 172.692 186.197 172.843 186.046L184.145 178.511C184.748 178.21 184.899 177.456 184.447 176.854C184.145 176.251 183.392 176.1 182.789 176.552L171.486 184.087C170.883 184.389 170.733 185.142 171.185 185.745C171.486 186.046 171.938 186.197 172.24 186.197Z" fill="white"/>
<path d="M163.498 184.238C163.649 184.238 163.95 184.238 164.101 184.087L172.389 179.114C172.992 178.812 173.143 178.059 172.841 177.456C172.54 176.853 171.787 176.703 171.184 177.004L162.895 181.977C162.292 182.279 162.142 183.032 162.443 183.635C162.594 184.087 163.046 184.238 163.498 184.238Z" fill="white"/>
<path d="M-79.1284 191.474C-76.4158 185.295 -73.7031 179.267 -71.1411 173.239C-49.8922 184.391 -35.4249 171.28 -25.0265 161.485C-13.121 150.333 3.15477 128.782 35.1035 128.782C35.1035 128.782 6.0181 162.238 2.70266 172.034C-0.46207 181.679 -12.3676 217.847 -49.7416 217.847C-64.8117 217.847 -76.7171 212.572 -85.3071 206.544C-83.348 201.571 -81.3889 196.447 -79.1284 191.474Z" fill="#6045AF"/>
<path d="M-49.7434 219.05C-24.4255 219.05 -6.34124 203.378 3.90647 172.484C7.0712 162.99 35.7045 129.986 36.0059 129.684L37.6636 127.725H35.1017C35.1017 127.725 35.1017 127.725 34.951 127.725C7.07116 127.725 -8.90315 143.85 -20.6579 155.605C-22.4663 157.414 -24.2747 159.222 -25.9324 160.729C-36.0294 170.223 -50.0447 183.184 -70.6908 172.182L-71.8964 171.579L-72.3486 172.785C-74.0063 176.854 -75.8147 180.772 -77.4724 184.691C-78.3766 186.8 -79.2808 188.91 -80.185 191.02C-82.4455 196.295 -84.5554 201.72 -86.3638 206.241L-86.6653 207.145L-85.9118 207.748C-75.0612 215.283 -62.8544 219.05 -49.7434 219.05ZM32.389 129.986C26.0596 137.521 4.35852 162.989 1.49519 171.579C-8.45112 201.569 -25.6311 216.639 -49.894 216.639C-62.2516 216.639 -73.7049 213.173 -84.1033 206.09C-82.4456 201.871 -80.4865 196.897 -78.3767 191.924C-77.4725 189.814 -76.5682 187.705 -75.664 185.595C-74.157 182.129 -72.4993 178.361 -70.9923 174.744C-49.4419 185.444 -34.5225 171.58 -24.5762 162.236C-22.9185 160.729 -21.11 158.921 -19.3016 156.961C-7.8483 146.111 7.07115 131.041 32.389 129.986Z" fill="#6045AF"/>
<path d="M-19.9049 205.94C-19.6035 205.94 -19.4528 205.94 -19.3021 205.79C-18.6993 205.488 -6.04035 196.597 1.64544 178.513C1.94684 177.91 1.6454 177.156 1.04259 177.006C0.439787 176.704 -0.313722 177.006 -0.464423 177.608C-7.6981 194.939 -20.357 203.68 -20.5077 203.831C-21.1105 204.132 -21.2612 204.885 -20.8091 205.488C-20.6584 205.79 -20.2063 205.94 -19.9049 205.94Z" fill="#2B2B2B"/>
<path d="M125.672 160.881C141.194 151.99 174.8 155.004 167.717 165.553C167.717 165.553 171.184 170.828 163.95 171.581C163.95 171.581 165.306 176.253 157.922 176.404C156.113 176.404 149.181 173.691 143.153 173.088C143.756 174.746 144.208 175.65 144.208 175.65C144.208 175.65 152.346 178.966 150.839 182.432C149.482 185.596 135.467 182.281 129.741 177.157C124.767 178.664 119.945 177.459 117.082 176.404" fill="white"/>
<path d="M147.374 184.842C148.128 184.842 148.881 184.842 149.484 184.691C150.69 184.39 151.594 183.787 151.895 182.883C152.197 181.978 152.197 181.074 151.895 180.17C150.69 177.457 146.47 175.347 145.114 174.745C145.114 174.745 145.114 174.594 144.963 174.594C147.826 175.046 150.69 175.95 153.101 176.553C155.663 177.307 157.019 177.608 157.923 177.608C161.088 177.457 163.198 176.704 164.403 175.046C165.006 174.293 165.157 173.388 165.308 172.635C167.417 172.183 168.774 171.429 169.377 170.073C170.13 168.415 169.527 166.607 169.075 165.703C170.281 163.442 170.13 161.181 168.472 159.524C162.143 152.742 137.428 153.044 125.07 159.976C124.468 160.277 124.317 161.031 124.618 161.634C124.92 162.236 123.262 163.593 123.865 163.291C135.77 156.51 161.54 155.606 166.664 161.182C167.418 161.935 168.02 163.141 166.664 165.1L166.212 165.703L166.664 166.305C166.965 166.757 167.568 168.114 167.116 169.018C166.664 169.922 165.006 170.374 163.801 170.374L162.444 170.525L162.896 171.881C162.896 171.881 163.198 172.786 162.444 173.69C161.691 174.594 160.184 175.197 157.773 175.197C157.17 175.197 155.361 174.745 153.704 174.293C150.84 173.539 146.771 172.333 143.155 172.032L141.195 171.881L141.949 173.69C142.552 175.498 143.155 176.402 143.155 176.402L143.305 176.704H143.757C145.716 177.457 149.032 179.416 149.785 181.074C149.936 181.376 149.936 181.677 149.785 181.978C149.785 181.978 149.635 182.129 149.032 182.28C145.114 183.033 135.167 180.321 130.646 176.252L130.194 175.8L129.591 175.95C124.92 177.457 120.097 176.101 117.686 175.197C117.083 175.046 116.33 175.347 116.179 175.95C116.028 176.553 116.33 177.307 116.932 177.457C120.097 178.663 124.92 179.718 129.742 178.361C133.962 182.129 142.401 184.842 147.374 184.842Z" fill="#2B2B2B"/>
<path d="M147.374 164.647C152.95 164.949 158.074 166.757 162.595 169.922C163.499 170.525 162.595 171.881 161.842 171.278C157.471 168.264 152.649 166.607 147.374 166.154C146.319 166.154 146.319 164.647 147.374 164.647Z" fill="#2B2B2B"/>
<path d="M155.212 158.017C159.733 158.318 163.651 160.428 166.213 164.195C166.816 165.1 165.46 165.853 164.857 164.949C162.596 161.633 159.13 159.674 155.212 159.524C154.157 159.674 154.157 158.017 155.212 158.017Z" fill="#2B2B2B"/>
<path d="M208.856 100.449L232.215 144.454L205.089 153.345L201.924 188.308L185.347 129.082L208.856 128.479V100.449Z" fill="#65A300"/>
<path d="M165.909 92.6123L180.376 111.902L168.169 118.081L169.224 135.11L156.867 107.984L168.018 106.025L165.909 92.6123Z" fill="#65A300"/>
<path d="M146.92 143.097C147.372 143.097 147.673 142.947 147.975 142.494L153.099 134.206C153.4 133.603 153.249 132.85 152.797 132.548C152.194 132.247 151.441 132.397 151.139 132.85L146.016 141.138C145.714 141.741 145.865 142.494 146.317 142.796C146.468 142.947 146.769 143.097 146.92 143.097Z" fill="#2B2B2B"/>
<path d="M153.701 141.59C154.153 141.59 154.455 141.439 154.756 140.987C155.058 140.384 154.907 139.631 154.455 139.33L146.166 134.206C145.563 133.904 144.81 134.055 144.509 134.507C144.207 135.11 144.358 135.863 144.81 136.165L153.099 141.289C153.249 141.439 153.4 141.59 153.701 141.59Z" fill="#2B2B2B"/>
<path d="M231.463 93.9687C232.066 93.9687 232.668 93.5166 232.668 92.9138C232.668 92.311 232.216 91.7081 231.614 91.7081L213.228 90.804C212.625 90.804 212.022 91.2561 212.022 91.8589C212.022 92.4617 212.474 93.0645 213.077 93.0645L231.463 93.9687Z" fill="#2B2B2B"/>
<path d="M221.816 102.56C222.419 102.56 223.022 102.108 223.022 101.505L223.926 83.1193C223.926 82.5165 223.474 81.9136 222.871 81.9136C222.269 81.9136 221.666 82.3657 221.666 82.9685L220.611 101.354C220.611 101.957 221.214 102.56 221.816 102.56Z" fill="#2B2B2B"/>
<path d="M26.3551 99.9975C26.6565 98.7919 27.1087 97.5864 27.5608 96.3807C27.5608 96.3807 27.5608 96.3807 27.5608 96.23C32.8354 84.626 45.4943 79.0501 55.8927 83.8725C60.8659 86.1331 64.1813 90.654 65.839 95.7779C67.6474 101.505 66.5925 107.683 65.2362 113.41C62.0715 126.22 50.9195 133.755 36.9042 125.768C33.7395 123.959 31.027 121.397 29.0678 118.232C23.944 117.479 20.1764 113.561 18.9708 109.341C17.4638 104.669 20.6285 100.148 26.3551 99.9975Z" fill="white"/>
<path d="M47.9076 130.287C50.3188 130.287 52.5794 129.835 54.6892 128.931C60.2651 126.52 64.4847 120.944 66.2931 113.71C67.6494 108.436 68.8551 101.654 66.896 95.4754C65.0876 89.598 61.32 85.077 56.3469 82.8165C51.3737 80.556 45.7977 80.4053 40.5232 82.3644C34.4951 84.6249 29.3713 89.4473 26.508 95.7768C26.0558 96.8317 25.7545 97.7359 25.3024 98.7908C22.5897 99.0922 20.1784 100.298 18.8221 102.408C17.3151 104.518 16.8631 107.23 17.7673 109.792C18.9729 113.861 22.7404 118.382 28.3164 119.437C30.4262 122.602 33.1388 125.164 36.3036 126.821C40.2218 129.082 44.1401 130.287 47.9076 130.287ZM48.0583 83.4192C50.6202 83.4192 53.0315 84.0221 55.4427 85.077C59.813 87.0361 62.9777 90.9543 64.6355 96.2289C66.4439 101.805 65.2383 107.984 63.8819 113.107C62.2242 119.588 58.4567 124.561 53.6342 126.671C48.8118 128.78 43.2359 128.027 37.3585 124.712C34.3445 123.054 31.7825 120.643 29.9741 117.629L29.6726 117.176H29.0699C24.2474 116.574 20.932 112.655 19.877 109.189C19.2742 107.381 19.5756 105.422 20.6306 103.915C21.8362 102.257 23.7953 101.353 26.2065 101.202H27.1107L27.4121 100.298C27.7135 99.0922 28.1656 97.8866 28.6177 96.8317C31.1796 91.1051 35.8514 86.584 41.4274 84.6249C43.5372 83.8714 45.9484 83.4192 48.0583 83.4192Z" fill="#2B2B2B"/>
<path d="M41.127 83.4205C45.9495 81.7628 51.224 81.6121 55.8958 83.8727C62.3759 86.8867 69.6096 91.257 71.418 95.3259C73.2264 99.3949 69.6096 103.162 66.7463 102.108C58.1563 97.2851 48.5114 91.1063 41.127 83.4205Z" fill="#2B2B2B"/>
<path d="M49.0476 107.899C48.4257 107.227 48.467 106.179 49.1396 105.558C49.8122 104.937 50.8616 104.978 51.4834 105.65C52.1053 106.322 52.0641 107.37 51.3915 107.991C50.7188 108.612 49.6694 108.571 49.0476 107.899Z" fill="#2B2B2B"/>
<path d="M57.8545 117.629C58.9094 114.163 59.3615 110.697 59.5122 107.23C59.5122 106.175 58.0052 106.175 57.8545 107.23C57.8545 110.697 57.2517 114.012 56.3475 117.327C56.0461 118.081 57.5531 118.684 57.8545 117.629Z" fill="#2B2B2B"/>
<path d="M32.9877 110.545C31.9328 106.928 28.6173 104.517 24.8498 104.668C23.7949 104.668 23.7949 106.325 24.8498 106.325C27.8638 106.175 30.7272 107.983 31.4807 110.997C31.7821 111.901 33.2891 111.449 32.9877 110.545Z" fill="#2B2B2B"/>
<path d="M31.18 103.464C33.8926 108.889 64.7865 93.2163 64.1837 92.0106C62.3753 88.3938 59.5119 85.5305 55.8951 83.8728C45.4967 79.0504 28.7688 83.4207 25.9054 100.601C25.9054 100.601 29.673 102.409 31.18 103.464Z" fill="#2B2B2B"/>
</g>
</svg>
