<svg width="261" height="261" viewBox="0 0 261 261" fill="none" xmlns="http://www.w3.org/2000/svg">
<circle cx="130.152" cy="130.152" r="130.152" fill="#F9F9F9"/>
<mask id="mask0" mask-type="alpha" maskUnits="userSpaceOnUse" x="0" y="0" width="260" height="260">
<circle r="130" transform="matrix(-1 0 0 1 130 130)" fill="#F9F9F9"/>
</mask>
<g mask="url(#mask0)">
<path d="M42.2162 262.485C41.1616 239.54 31.2831 177.735 31.2831 177.735L67.2719 174.27C67.0768 170.582 67.0761 168.252 67.0761 168.252L105.163 169.911C114.255 197.163 165.609 300.653 165.609 300.653L123.879 321.436C123.879 321.436 103.057 275.707 87.7117 240.576C89.4328 286.853 78.8444 324.554 72.2077 332.593L31.5548 317.035C31.5159 316.919 43.3872 285.391 42.2162 262.485Z" fill="white"/>
<path d="M123.375 322.64L166.891 301.003L166.503 300.226C166.036 299.217 115.032 196.387 106.095 169.601L105.901 169.018L66.2222 167.244L66.3001 168.253C66.3001 168.253 66.3396 170.311 66.4957 173.494L30.3904 176.998L30.5849 177.969C30.6627 178.59 40.4245 240.046 41.5179 262.718C42.5335 285.158 30.8562 316.492 30.8175 316.764L30.4683 317.657L72.5967 333.758L73.0625 333.214C79.4663 325.641 89.7836 290.231 88.9171 245.351C103.913 279.434 122.987 321.475 123.259 321.902L123.375 322.64ZM164.406 300.149L124.306 320C121.354 313.478 102.629 272.097 88.5662 240.032L86.585 235.646L86.7804 240.499C88.4237 286.155 78.3396 322.652 71.8972 331.273L32.7197 316.259C34.5818 310.978 44.28 283.023 43.3037 262.252C42.3272 241.093 33.7319 186.237 32.5262 178.357L68.3597 174.814L68.3206 173.921C68.2034 171.63 68.1642 169.961 68.0863 168.951L104.542 170.766C113.635 197.241 159.589 290.367 164.406 300.149Z" fill="#2B2B2B"/>
<path d="M43.4359 183.517C43.7853 183.401 44.057 183.051 44.0569 182.663C44.173 181.459 44.2892 180.256 44.4053 179.052C44.4828 178.509 44.0945 178.121 43.5509 178.043C43.0074 177.966 42.6192 178.354 42.5417 178.898C42.4256 180.101 42.3094 181.305 42.2321 182.625C42.1546 183.168 42.543 183.556 43.0865 183.634C43.1641 183.479 43.3195 183.556 43.4359 183.517Z" fill="#2B2B2B"/>
<path d="M47.8965 307.442C48.2458 307.326 48.4399 307.132 48.5562 306.705C49.0603 304.336 49.4866 301.735 49.8741 299.017C49.9516 298.474 49.5633 298.085 49.1362 297.969C48.5926 297.892 48.2045 298.28 48.0881 298.707C47.7007 301.425 47.2355 303.91 46.7314 306.278C46.6539 306.822 46.9258 307.249 47.4693 307.326C47.6247 307.404 47.78 307.481 47.8965 307.442ZM50.2604 292.029C50.6098 291.912 50.8815 291.563 50.9202 291.291C51.2301 288.728 51.4235 286.205 51.6945 283.526C51.772 282.982 51.3837 282.594 50.8401 282.517C50.2966 282.439 49.9085 282.828 49.831 283.371C49.6764 286.011 49.3665 288.574 49.1731 291.097C49.0956 291.641 49.4839 292.029 50.0275 292.106C49.9886 291.99 50.144 292.068 50.2604 292.029ZM51.4208 276.499C51.7702 276.382 52.0419 276.033 52.0418 275.645C52.1187 273.16 52.0404 270.597 52.0008 267.763C51.9618 267.259 51.5735 266.87 51.0688 266.909C50.5641 266.948 50.1759 267.337 50.2149 267.841C50.3321 270.52 50.3328 273.238 50.3335 275.567C50.3725 276.072 50.7608 276.46 51.1879 276.577C51.1491 276.46 51.3044 276.538 51.4208 276.499ZM50.7565 260.931C51.1059 260.814 51.3776 260.465 51.3386 259.96C51.1826 257.553 50.8325 254.952 50.56 252.195C50.521 251.691 50.0162 251.341 49.5115 251.38C49.0068 251.419 48.6575 251.924 48.6965 252.429C48.969 255.185 49.3192 257.786 49.4751 260.193C49.5141 260.698 50.0189 261.047 50.5236 261.008C50.6401 260.969 50.7565 260.931 50.7565 260.931ZM48.9275 245.363C49.3933 245.207 49.6261 244.741 49.5096 244.392C49.1594 241.791 48.8481 239.306 48.3815 236.744C48.3426 236.239 47.8378 235.89 47.3331 235.929C46.8284 235.968 46.4791 236.473 46.518 236.977C46.8682 239.579 47.3348 242.141 47.6461 244.625C47.6851 245.13 48.1898 245.479 48.6945 245.44C48.811 245.402 48.811 245.402 48.9275 245.363ZM46.6715 230.067C47.1373 229.911 47.3701 229.445 47.2535 229.096C46.9034 226.495 46.5532 223.894 46.1255 221.448C46.0865 220.943 45.5817 220.594 45.077 220.633C44.5723 220.672 44.223 221.177 44.262 221.681C44.6121 224.283 44.9623 226.884 45.4289 229.446C45.4678 229.951 45.9727 230.3 46.4774 230.261C46.6326 229.95 46.6715 230.067 46.6715 230.067ZM44.6095 214.577C44.9589 214.46 45.347 214.072 45.1915 213.606C44.919 210.849 44.6077 208.365 44.4129 205.841C44.374 205.337 43.8692 204.987 43.3645 205.026C42.8598 205.065 42.5105 205.57 42.5494 206.075C42.7443 208.598 43.0555 211.083 43.3281 213.839C43.367 214.344 43.8718 214.693 44.3765 214.654C44.493 214.615 44.6095 214.577 44.6095 214.577ZM43.324 199.086C43.6734 198.97 43.945 198.62 43.9449 198.232C43.8277 195.553 43.7493 192.991 43.8263 190.506C43.7873 190.001 43.399 189.613 42.8554 189.536C42.3507 189.575 41.9626 189.963 41.8851 190.506C41.9246 192.952 41.9254 195.67 42.0426 198.349C42.0815 198.854 42.4699 199.242 42.9746 199.203C43.0522 199.047 43.2075 199.125 43.324 199.086Z" fill="#2B2B2B"/>
<path d="M85.8844 232.385C86.2338 232.268 86.5055 231.919 86.5054 231.53C86.9694 224.775 81.3715 198.687 80.4384 193.951C81.5642 193.446 84.3203 192.008 89.2113 189.212C89.6383 188.94 89.8323 188.357 89.5604 187.93C89.2885 187.503 88.7061 187.309 88.2791 187.581C81.6412 191.349 79.0792 192.592 79.0792 192.592L78.4193 192.942L78.536 193.679C78.6526 194.029 85.1834 224.465 84.7971 231.453C84.7196 231.997 85.108 232.385 85.6515 232.462C85.6515 232.462 85.768 232.424 85.8844 232.385Z" fill="#2B2B2B"/>
<path d="M220.529 101.394C220.878 101.277 221.15 100.928 221.15 100.54L222.232 84.777C222.31 84.2334 221.922 83.8453 221.378 83.7678C220.834 83.6903 220.446 84.0786 220.369 84.6221L219.286 100.385C219.209 100.929 219.597 101.317 220.141 101.394C220.296 101.472 220.412 101.433 220.529 101.394Z" fill="#2B2B2B"/>
<path d="M208.572 102.795C209.038 102.64 209.27 102.174 209.115 101.708L206.782 89.6734C206.743 89.1687 206.238 88.8195 205.773 88.9749C205.268 89.0139 204.919 89.5187 205.074 89.9845L207.407 102.019C207.485 102.64 207.951 102.873 208.572 102.795Z" fill="#2B2B2B"/>
<path d="M247.596 263.593C248.178 263.399 248.372 262.817 248.217 262.351L240.214 242.63C240.058 242.165 239.476 241.971 239.01 242.126C238.544 242.281 238.35 242.864 238.506 243.33L246.509 263.05C246.548 263.555 247.13 263.749 247.596 263.593Z" fill="#2B2B2B"/>
<path d="M219.526 261.699C219.875 261.582 220.069 261.388 220.186 260.961L222.899 246.984C222.977 246.44 222.705 246.013 222.161 245.935C221.618 245.858 221.191 246.13 221.113 246.673L218.4 260.651C218.322 261.194 218.594 261.621 219.137 261.699C219.293 261.776 219.409 261.738 219.526 261.699Z" fill="#2B2B2B"/>
<path d="M182.676 242.802L367.383 181.176C376.001 178.3 376.813 166.381 368.62 162.384L295.504 126.337C293.058 125.212 290.379 124.941 287.817 125.796L103.11 187.422C94.492 190.297 93.68 202.216 101.873 206.213L174.988 242.26C177.357 243.541 180.114 243.656 182.676 242.802Z" fill="white"/>
<path d="M182.987 243.733L367.694 182.107C372.003 180.669 374.914 176.98 375.301 172.321C375.571 167.701 373.319 163.664 369.125 161.569L296.01 125.522C293.369 124.202 290.341 124.048 287.546 124.981L102.839 186.607C98.5296 188.044 95.6189 191.733 95.232 196.392C94.9615 201.012 97.2144 205.049 101.408 207.145L174.523 243.192C177.164 244.511 180.192 244.666 182.987 243.733ZM288.129 126.727C290.458 125.95 292.981 126.144 295.156 127.23L368.271 163.277C371.688 164.985 373.708 168.323 373.437 172.167C373.167 176.01 370.722 179.156 367.111 180.36L182.404 241.986C180.075 242.763 177.551 242.57 175.377 241.483L102.262 205.436C98.8446 203.729 96.8248 200.391 97.0955 196.547C97.3662 192.703 99.8113 189.558 103.422 188.353L288.129 126.727Z" fill="#2B2B2B"/>
<path d="M192.959 224.745L357.053 169.997L280.404 132.281L116.311 187.03L192.959 224.745Z" fill="#2B2B2B"/>
<path d="M250.567 199.184L275.489 190.868L263.841 185.048L238.802 193.402L250.567 199.184Z" fill="white"/>
<path d="M199.04 173.535C216.044 167.862 229.358 158.502 232.384 150.115C232.616 149.649 232.306 149.106 231.84 148.873C231.374 148.64 230.83 148.951 230.597 149.417C227.843 157.066 214.607 166.271 198.419 171.672C178.271 178.394 159.053 177.429 156.449 169.626C156.294 169.16 155.789 168.811 155.207 169.005C154.625 169.199 154.392 169.665 154.586 170.247C157.772 179.409 177.262 180.801 199.04 173.535Z" fill="#65A300"/>
<path d="M224.577 139.518C224.809 139.441 225.12 139.208 225.159 138.936C225.275 138.509 225.081 137.926 224.537 137.849C217.51 135.793 207.027 136.184 195.691 139.06C193.285 139.605 190.839 140.421 188.393 141.237C187.927 141.392 187.578 141.897 187.772 142.479C187.967 143.061 188.433 143.294 189.015 143.1C191.461 142.284 193.829 141.623 196.197 140.963C207.3 138.164 217.394 137.773 224.15 139.79C224.227 139.635 224.344 139.596 224.577 139.518Z" fill="#65A300"/>
<path d="M168.955 188.491C169.304 188.375 169.576 188.025 169.537 187.52C169.498 187.016 169.109 186.628 168.605 186.667C163.558 187.056 158.86 186.941 154.706 186.515C144.378 185.431 137.738 181.822 135.951 176.465C131.793 164.004 154.267 145.245 186.061 134.638C202.133 129.276 218.011 126.825 230.629 127.792C231.173 127.87 231.561 127.482 231.638 126.938C231.716 126.394 231.327 126.006 230.784 125.929C217.894 124.923 201.899 127.412 185.595 132.852C152.287 143.965 129.774 163.383 134.321 177.009C136.341 183.065 143.486 187.023 154.629 188.223C158.938 188.727 163.713 188.687 168.799 188.414C168.838 188.53 168.955 188.491 168.955 188.491Z" fill="#65A300"/>
<path d="M201.76 181.688C205.137 180.561 208.359 179.356 211.542 178.035C239.531 166.497 256.997 149.41 252.995 137.414C252.84 136.948 252.335 136.599 251.752 136.793C251.17 136.988 250.937 137.453 251.132 138.036C254.745 148.867 237.357 165.41 210.727 176.366C207.543 177.687 204.321 178.892 201.06 179.98C200.594 180.135 200.245 180.64 200.44 181.222C200.634 181.804 201.294 181.843 201.76 181.688Z" fill="#65A300"/>
<path d="M191.395 184.757C191.861 184.602 192.094 184.136 191.938 183.67C191.783 183.204 191.278 182.855 190.812 183.01C185.688 184.331 180.447 185.303 175.633 186.004C175.128 186.043 174.779 186.547 174.818 187.052C174.857 187.557 175.361 187.906 175.866 187.867C180.913 187.089 186.038 186.156 191.395 184.757C191.395 184.757 191.278 184.796 191.395 184.757Z" fill="#65A300"/>
<path d="M183.361 195.591C183.827 195.436 184.06 194.97 183.905 194.504C183.749 194.038 183.244 193.689 182.779 193.844C154.633 199.87 130.833 198.362 120.426 189.669C118.251 187.806 116.776 185.71 115.96 183.264C114.522 178.955 114.87 174.568 117.16 170.957C117.393 170.491 117.354 169.986 116.849 169.637C116.383 169.404 115.878 169.443 115.529 169.948C113.006 174.025 112.464 178.994 114.096 183.886C115.029 186.681 116.738 189.087 119.223 191.106C130.096 200.032 154.595 201.695 183.361 195.591C183.361 195.591 183.322 195.475 183.361 195.591Z" fill="#65A300"/>
<path d="M264.794 123.123C265.027 123.045 265.105 122.89 265.299 122.696C265.532 122.23 265.376 121.764 264.988 121.376C257.571 116.991 246.156 114.975 231.908 115.329C231.403 115.367 231.015 115.756 231.054 116.261C231.093 116.765 231.482 117.153 231.986 117.114C245.924 116.606 256.951 118.622 264.056 122.851C264.289 123.162 264.561 123.201 264.794 123.123Z" fill="#65A300"/>
<path d="M246.249 169.95C246.365 169.912 246.365 169.912 246.482 169.873C266.861 156.473 276.757 141.911 273.065 130.847C272.91 130.381 272.405 130.032 271.823 130.226C271.24 130.421 271.008 130.887 271.202 131.469C274.582 141.601 264.958 155.425 245.317 168.32C244.89 168.592 244.812 169.135 245.084 169.562C245.472 169.951 245.899 170.067 246.249 169.95Z" fill="#65A300"/>
<path d="M196.164 164.918C185.744 168.394 176.167 167.823 174.772 163.643C173.377 159.462 180.693 153.254 191.113 149.778C201.533 146.301 211.11 146.872 212.505 151.053C213.9 155.234 206.584 161.441 196.164 164.918Z" fill="#65A300"/>
<path d="M65.6572 88.3533C90.2715 88.0359 110.156 113.111 117.962 119.048C137.3 133.563 170.841 125.09 181.403 129.591C191.343 133.781 187.656 139.412 187.656 139.412C187.656 139.412 189.909 143.061 187.619 145.895C187.619 145.895 196.123 150.435 194.066 154.357C192.126 158.24 178.69 149.004 174.381 149.665L174.149 152.848C175.081 154.479 181.022 156.768 179.548 159.719C178.228 162.747 167.822 157.548 164.871 155.685C161.92 153.823 158.154 155.726 152.796 153.243C147.438 150.759 129.193 158.141 112.263 149.294C95.4496 140.408 63.5272 107.572 63.5272 107.572L65.6572 88.3533Z" fill="white"/>
<path d="M179.121 161.156C179.936 160.884 180.402 160.34 180.635 159.874C181.915 157.117 179.042 155.099 176.984 153.586C176.323 153.159 175.625 152.615 175.236 152.227L175.352 150.247C177.099 150.441 180.128 151.76 182.846 152.924C188.282 155.252 193.446 157.541 194.998 154.435C196.938 150.552 191.385 146.71 188.978 145.313C190.22 142.828 189.209 140.188 188.743 139.179C189.131 138.402 189.519 136.849 189.014 134.947C188.159 132.385 185.751 130.211 181.83 128.543C177.908 126.875 170.959 126.993 162.922 126.956C148.596 127.077 130.659 127.237 118.544 118.078C116.99 116.914 114.855 114.779 112.292 112.528C102.272 103.058 85.5348 87.028 65.6959 87.3053L64.9194 87.3055L62.8673 107.533L63.1003 107.844C64.4596 109.202 95.2558 140.991 112.03 149.76C123.174 155.619 134.821 154.451 143.246 153.711C147.4 153.361 150.894 152.972 152.563 153.709C155.631 155.145 158.232 155.183 160.329 155.26C162.037 155.337 163.357 155.414 164.483 156.074C164.6 156.423 175.006 162.399 179.121 161.156C179.121 161.156 179.005 161.195 179.121 161.156ZM173.527 148.656L173.217 152.771L173.295 153.004C173.645 153.664 174.654 154.363 175.664 155.061C177.722 156.575 179.314 157.856 178.81 159.059C178.81 159.059 178.732 159.215 178.383 159.331C176.054 160.108 168.831 156.694 165.414 154.598C163.822 153.706 162.114 153.629 160.25 153.474C158.27 153.358 155.941 153.358 153.301 152.039C151.165 151.069 147.787 151.42 143.012 151.848C134.743 152.666 123.445 153.717 112.767 148.09C97.0802 139.864 67.8763 110.133 64.5754 106.834L66.3176 89.1686C85.1472 89.3575 101.147 104.727 110.817 113.926C113.457 116.41 115.554 118.428 117.147 119.709C129.767 129.217 148.092 129.057 162.69 128.975C170.454 128.973 177.171 128.932 180.782 130.446C184.238 131.881 186.373 133.627 186.918 135.646C187.5 137.393 186.569 138.869 186.569 138.869L186.22 139.373L186.53 139.917C186.53 139.917 188.356 143.061 186.648 145.313L185.911 146.207L186.882 146.789C188.901 147.798 194.26 151.445 193.018 153.931C192.242 155.484 186.767 153.039 183.272 151.487C179.623 149.858 176.167 148.422 174.07 148.733L173.527 148.656Z" fill="#2B2B2B"/>
<path d="M100.921 134.7C99.8345 136.098 98.7478 137.496 97.7387 138.739C81.6232 125.737 63.7979 107.223 63.7979 107.223L65.6173 88.2377C87.5139 87.9211 105.65 107.755 114.854 116.333C109.964 122.235 105.54 128.759 100.921 134.7Z" fill="#6045AF"/>
<path d="M97.8179 140.136L98.3613 139.437C99.448 138.039 100.418 136.68 101.544 135.399C103.562 132.913 105.425 130.35 107.288 127.787C109.849 124.215 112.643 120.565 115.515 117.147L116.059 116.448L115.476 115.866C114.505 114.896 113.418 113.964 112.253 112.8C102.234 103.33 85.4961 87.3001 65.6572 87.5774L64.8807 87.5776L62.8286 107.805L63.0616 108.116C63.2558 108.31 81.1976 126.785 97.119 139.593L97.8179 140.136ZM113.613 116.488C110.935 119.711 108.335 123.167 105.967 126.545C104.104 129.108 102.125 131.71 100.223 134.156C99.2919 135.244 98.5157 136.409 97.5843 137.496C83.022 125.659 67.1385 109.474 64.7696 107.028L66.5118 89.363C85.3414 89.5519 101.341 104.922 111.011 114.12C111.943 114.974 112.72 115.75 113.613 116.488Z" fill="#6045AF"/>
<path d="M179.037 141.899C181.988 142.209 184.667 143.256 187.23 144.731C187.89 145.158 187.347 146.245 186.687 145.818C184.241 144.305 181.6 143.374 178.766 143.025C177.99 143.025 178.222 141.783 179.037 141.899Z" fill="#2B2B2B"/>
<path d="M179.852 135.803C182.531 135.686 185.016 136.539 187.113 138.169C187.657 138.635 186.919 139.528 186.259 139.101C184.473 137.627 182.143 136.851 179.853 136.968C179.231 137.046 179.076 135.804 179.852 135.803Z" fill="#2B2B2B"/>
<path d="M65.6574 88.3536C78.7411 88.3888 89.4575 91.8023 98.1636 126.431C106.87 161.059 110.794 171.269 110.794 171.269L31.5194 185.811C31.5194 185.811 23.4558 88.3265 65.6574 88.3536Z" fill="#6045AF"/>
<path d="M111.958 172.045L111.609 170.997C111.57 170.88 107.685 160.399 99.0174 126.275C89.9227 90.4818 78.5853 87.5343 65.6181 87.4602L65.6571 88.3532L65.6181 87.4602C58.358 87.4234 52.0693 90.2982 46.9072 95.7738C25.3276 119.152 30.2372 183.132 30.5097 185.889L30.5877 186.898L111.958 172.045ZM58.2035 90.4518C60.5327 89.6746 62.9785 89.2469 65.5797 89.285C78.1587 89.3592 88.5254 92.1128 97.2316 126.741C104.383 155.158 108.308 167.309 109.551 170.648L32.3342 184.762C31.7495 176.415 28.6663 118.297 48.2665 97.1322C51.2162 93.9478 54.4768 91.6952 58.2035 90.4518Z" fill="#6045AF"/>
<path d="M99.8724 132.721C100.338 132.565 100.571 132.099 100.416 131.633L94.47 111.485C94.3146 111.02 93.8098 110.67 93.3439 110.826C92.8781 110.981 92.5288 111.486 92.6843 111.952L98.6299 132.1C98.8242 132.682 99.2901 132.915 99.8724 132.721C99.8724 132.721 99.756 132.759 99.8724 132.721Z" fill="#2B2B2B"/>
<path d="M11.3622 159.145C13.2551 124.863 34.2488 88.8672 65.6572 88.3538C65.6572 88.3538 47.2658 128.27 40.2444 149.12C35.2403 163.991 35.9854 190.663 36.7662 206.192C47.2502 212.013 49.7008 229.056 48.2258 230.066C44.0725 233.134 40.0708 223.08 40.0708 223.08L38.0131 222.731C38.7131 227.157 39.7629 232.631 38.4047 234.766C36.3479 237.912 32.4648 235.583 32.4648 235.583C29.5926 238.224 25.3993 236.905 25.3993 236.905C9.21086 241.142 9.46939 193.427 11.3622 159.145Z" fill="white"/>
<path d="M36.8911 237.213C37.7063 236.941 38.5603 236.397 39.1424 235.426C40.5782 233.135 39.878 228.321 39.1004 224.051L39.3722 224.09C40.0715 225.798 42.4799 230.689 45.6249 231.581C46.7509 231.852 47.8379 231.619 48.7695 230.92C49.1964 230.648 49.7009 229.833 49.4673 227.193C49.1943 222.883 46.4733 210.849 37.62 205.649C36.2926 179.171 37.3745 160.302 41.0209 149.508C47.887 128.969 66.2009 89.2078 66.3561 88.8972L66.9381 87.5381L65.5016 87.4997C33.4331 87.9745 12.2842 124.281 10.3138 159.106C7.76388 203.832 10.6052 229.805 18.6436 236.441C20.5852 237.994 22.8372 238.537 25.3606 237.954C26.3313 238.147 29.7868 238.806 32.465 236.748C33.824 237.33 35.3771 237.718 36.8911 237.213ZM36.8868 221.683L37.2756 223.624C37.8978 227.429 38.8698 232.67 37.6668 234.495C36.1145 236.825 33.0858 235.117 33.0469 235.001L32.4256 234.69L31.921 235.118C29.5534 237.331 25.826 236.245 25.826 236.245L25.5542 236.206L25.3213 236.284C23.3026 236.828 21.4778 236.402 20.0021 235.082C14.7985 230.735 9.24204 214.081 12.3328 159.339C14.2258 125.833 34.0552 91.0026 64.2209 89.4801C60.9229 96.6634 45.558 130.522 39.3901 148.888C35.7049 159.953 34.5067 179.249 35.8731 206.231L35.912 206.736L36.378 206.969C46.0466 212.285 48.4967 227.387 47.6432 229.484C47.0997 229.794 46.7503 229.911 46.1679 229.717C43.8771 229.058 41.5464 224.399 41.0024 222.769L40.847 222.303L36.8868 221.683Z" fill="#2B2B2B"/>
<path d="M32.0102 138.407C26.7685 136.661 21.7985 134.566 16.712 132.51C24.9748 108.398 42.4789 88.7092 65.6567 88.3534C65.6567 88.3534 50.99 120.038 42.9207 141.626C39.2321 140.656 35.6212 139.532 32.0102 138.407Z" fill="#6045AF"/>
<path d="M43.4646 142.869L43.7362 142.132C51.7668 120.815 66.317 89.1695 66.4722 88.8589L67.0542 87.4998L65.6177 87.4614C44.3422 87.7002 25.2457 104.943 15.819 132.162L15.5863 133.016L16.3629 133.404C17.4113 133.831 18.4596 134.257 19.6244 134.645C23.5461 136.314 27.7007 137.904 31.7776 139.262C35.0003 140.387 38.4559 141.434 42.7269 142.598L43.4646 142.869ZM64.1817 89.3642C61.3493 95.6156 49.5153 121.825 42.3381 140.657C38.4554 139.493 35.3104 138.601 32.243 137.554C28.1661 136.196 24.128 134.566 20.2452 133.014C19.4686 132.626 18.6144 132.394 17.8378 132.006C24.9759 111.893 40.7713 90.5742 64.1817 89.3642Z" fill="#6045AF"/>
<path d="M28.8876 222.151C28.8874 221.375 30.1297 221.219 30.1688 222.112C30.2865 226.344 31.2193 230.304 33.1228 234.069C33.4724 234.729 32.3077 235.117 31.9581 234.457C29.8994 230.614 28.9277 226.538 28.8876 222.151Z" fill="#2B2B2B"/>
<path d="M21.2013 222.774C21.201 221.998 22.3269 221.881 22.4824 222.735C22.7554 227.044 23.8825 231.198 25.5918 235.158C25.9414 235.818 24.7768 236.206 24.4272 235.546C22.5237 231.393 21.5131 227.2 21.2013 222.774Z" fill="#2B2B2B"/>
<path d="M45.1715 137.51C45.4044 137.433 45.715 137.2 45.7537 136.928C49.2062 126.716 50.5637 121.863 50.6802 121.824C50.7965 121.397 50.6022 120.815 50.0587 120.737C49.6316 120.621 49.0493 120.815 48.9718 121.359C48.9718 121.359 47.4978 126.251 44.1618 136.424C43.929 136.89 44.2397 137.433 44.7057 137.666C44.7833 137.51 44.9386 137.588 45.1715 137.51Z" fill="#2B2B2B"/>
<path d="M54.7044 70.2641C53.4608 66.1491 56.721 62.3434 62.0012 63.0408C62.8166 63.157 63.5543 63.4286 64.4473 63.7778C64.4473 63.7778 64.4474 63.7778 64.525 63.6225C68.6766 54.7307 78.4979 50.4185 86.4578 54.1045C94.4177 57.7906 96.0899 67.4573 93.5689 76.9698C91.1254 85.5506 82.4696 92.5801 71.6361 86.4878C68.1025 84.4311 65.3063 81.093 63.8687 77.1722C59.1322 77.3288 55.7924 73.9132 54.7044 70.2641Z" fill="white"/>
<path d="M83.9051 89.1248C84.2545 89.0082 84.4875 88.9305 84.8368 88.8139C89.3787 86.9103 92.8717 82.6387 94.3455 77.3583C97.4096 66.3702 94.4175 57.0145 86.7682 53.4836C78.4977 49.6424 68.3658 53.7993 63.9812 62.7688C63.3988 62.5749 62.6999 62.4198 62.1563 62.3423C59.2832 61.8772 56.7211 62.7321 55.1298 64.5573C53.7326 66.1882 53.1897 68.4401 53.928 70.6529C54.9772 74.1856 58.3171 77.9895 63.3255 78.2598C64.8795 82.1418 67.6369 85.3634 71.1704 87.4201C76.4513 90.4469 80.8771 90.135 83.9051 89.1248ZM75.6261 54.6126C79.0034 53.4858 82.6529 53.5624 85.9922 55.0368C94.2628 58.8781 94.6926 69.0886 92.5983 76.7764C91.2408 81.6297 88.0971 85.3965 84.0987 86.9894C80.3332 88.5046 76.1789 88.0787 72.0241 85.7116C68.6847 83.849 66.0827 80.705 64.6839 76.9006L64.4897 76.3183L63.8296 76.2796C59.559 76.2808 56.5298 73.0205 55.636 69.9536C55.1309 68.4396 55.4799 66.7701 56.5278 65.6439C57.7309 64.2071 59.7496 63.663 61.9238 63.973C62.6227 64.1281 63.3216 64.2832 64.2146 64.6323L64.9912 65.0204L65.3792 64.2438C67.3967 59.4291 71.317 56.0503 75.6261 54.6126Z" fill="#2B2B2B"/>
<path d="M80.9708 72.6246C80.5119 72.1255 80.5448 71.3491 81.0443 70.8906C81.5439 70.4321 82.3209 70.465 82.7798 70.9641C83.2388 71.4633 83.2059 72.2396 82.7063 72.6981C82.2068 73.1567 81.4298 73.1237 80.9708 72.6246Z" fill="#2B2B2B"/>
<path d="M87.8232 80.3103C88.6378 77.7089 89.0253 74.9911 89.141 72.2346C89.1408 71.4581 87.9372 71.3419 87.9374 72.1184C87.8993 74.7196 87.473 77.321 86.7749 79.8835C86.3868 80.6601 87.5517 81.048 87.8232 80.3103Z" fill="#2B2B2B"/>
<path d="M91.2352 63.3825C87.3139 63.2672 73.491 57.5251 71.6685 65.6398C71.2032 67.7364 71.6695 69.1339 69.5342 69.3286C67.3989 69.1351 66.9712 66.6894 66.9712 66.6894C64.9131 65.1758 63.7867 63.3513 62.0007 63.0413C55.5544 57.6853 63.1218 45.8419 70.6157 48.9069C70.6157 48.9069 82.4937 41.4495 88.9016 48.2419C96.4335 48.7057 100.589 53.014 100.784 58.2551C100.942 67.2622 91.2352 63.3825 91.2352 63.3825Z" fill="#2B2B2B"/>
<path d="M65.6146 71.1542C64.7986 68.3203 62.2357 66.4574 59.2851 66.5359C58.5086 66.5361 58.4313 67.8562 59.169 67.7395C61.4595 67.6224 63.6341 69.0971 64.2559 71.3487C64.5667 72.2804 65.7702 72.0083 65.6146 71.1542Z" fill="#2B2B2B"/>
<path d="M210.466 212.044C210.699 211.967 210.893 211.773 210.97 211.617L220.748 192.047C220.981 191.581 220.787 190.999 220.321 190.766C219.855 190.533 219.273 190.728 219.04 191.194L209.262 210.764C209.029 211.23 209.223 211.812 209.689 212.045C209.961 212.083 210.233 212.122 210.466 212.044Z" fill="#65A300"/>
<path d="M225.024 207.187C225.257 207.109 225.451 206.915 225.529 206.76C225.761 206.294 225.567 205.712 225.101 205.479L205.531 195.701C205.065 195.468 204.483 195.662 204.25 196.128C204.017 196.594 204.212 197.176 204.678 197.409L224.248 207.187C224.636 207.187 224.791 207.265 225.024 207.187Z" fill="#65A300"/>
</g>
</svg>
