<svg width="260" height="260" viewBox="0 0 260 260" fill="none" xmlns="http://www.w3.org/2000/svg">
<circle cx="130" cy="130" r="130" fill="#F9F9F9"/>
<mask id="mask0" mask-type="alpha" maskUnits="userSpaceOnUse" x="0" y="0" width="260" height="260">
<circle cx="130" cy="130" r="130" fill="white"/>
</mask>
<g mask="url(#mask0)">
<path d="M95.0013 264.665C81.3928 267.986 67.7289 271.514 54.1406 275.172C50.0821 285.365 42.7305 298.769 34.9587 312.501L68.3512 320.785C69.3269 310.54 87.4685 285.761 95.0013 264.665Z" fill="white"/>
<path d="M33.8089 313.078L34.2917 312.102C42.4911 297.599 49.4705 284.759 53.4461 274.875L53.5567 274.463L53.9215 274.339C69.0448 270.318 82.3714 266.811 94.7822 263.832L96.214 263.442L95.7237 264.858C92.078 275.162 85.8783 286.331 80.3475 296.24C74.5476 306.741 69.5753 315.805 69.1013 320.876L68.9556 321.832L33.8089 313.078ZM54.8556 275.806C50.9354 285.484 44.1698 297.938 36.3151 311.98L67.7194 319.842C68.6412 314.338 73.5305 305.584 79.089 295.571C84.2474 286.225 90.1782 275.649 93.7888 265.888C81.8738 268.668 69.146 272.004 54.8556 275.806Z" fill="#2B2B2B"/>
<path d="M51.4761 270.256C51.3838 272.664 49.3877 278.876 48.7241 281.352C61.4701 280.012 96.3636 276.09 96.3636 276.09C100.284 266.412 102.517 252.301 97.4149 242.861C89.0449 227.457 50.4456 211.363 50.4456 211.363L31.9877 207.192L11.9221 235.436C34.1974 246.824 52.5669 250.088 51.4761 270.256Z" fill="#2B2B2B"/>
<path d="M47.6977 282.294L48.0019 281.159C48.1954 280.436 48.4442 279.508 48.7484 278.373C49.5981 275.614 50.5935 271.899 50.6987 270.268C51.4813 254.552 40.0368 249.384 24.17 242.147C20.1329 240.291 15.9925 238.407 11.4946 236.207L10.7245 235.779L31.5623 206.303L50.6669 210.538L50.7702 210.565C52.3659 211.214 89.7545 226.873 98.2001 242.407C103.604 252.371 100.951 266.812 97.1892 276.311L96.9754 276.696L96.5073 276.792C96.1701 276.812 61.483 280.789 48.8679 282.054L47.6977 282.294ZM52.3294 270.374C52.2721 272.238 51.1736 275.926 50.2686 278.89C50.1027 279.51 49.9644 280.025 49.8262 280.541C62.3382 279.249 91.6778 275.83 95.7796 275.38C99.4308 266.294 101.787 252.548 96.7332 243.342C88.7409 228.592 51.999 212.996 50.2245 212.189L32.2826 208.155L13.0924 235.197C17.1774 237.287 21.0359 238.984 24.7635 240.757C41.2494 248.161 53.1822 253.57 52.3294 270.374Z" fill="#2B2B2B"/>
<path d="M51.6286 275.052C51.319 274.969 51.0648 274.68 51.0169 274.446C50.9211 273.978 51.2381 273.62 51.7061 273.525L93.8012 266.666C94.2692 266.57 94.6267 266.887 94.7224 267.355C94.8182 267.823 94.5012 268.181 94.0332 268.276L51.9381 275.135C51.835 275.107 51.7318 275.08 51.6286 275.052Z" fill="white"/>
<path d="M-4.08891 204.383C-12.227 213.704 -25.3266 234.525 -46.268 247.052C-43.8642 256.654 -33.2775 294.329 -32.6603 296.153C-20.5221 290.89 -1.56691 276.283 9.20476 262.911C29.7972 237.241 37.6131 203.944 37.6131 203.944L-4.08891 204.383Z" fill="#2B2B2B"/>
<path d="M-33.1703 297.233L-33.4927 296.372C-34.2333 294.183 -44.7445 256.639 -47.1005 247.271L-47.2718 246.672L-46.7484 246.37C-30.648 236.638 -19.235 222.111 -10.9715 211.496C-8.61441 208.478 -6.60198 205.921 -4.70014 203.776L-4.51396 203.494L38.6124 203.105L38.3359 204.137C38.2529 204.447 30.2786 237.922 9.74144 263.386C-0.55477 276.222 -19.4897 291.166 -32.5161 296.855L-33.1703 297.233ZM-45.3665 247.404C-42.7637 257.502 -33.8901 289.188 -32.1216 294.97C-19.3771 289.095 -1.25481 274.707 8.69678 262.332C26.9598 239.576 35.2249 210.382 36.7456 204.706L-3.60748 205.064C-5.35083 207.03 -7.26013 209.615 -9.56189 212.427C-17.9563 223.117 -29.2384 237.569 -45.3665 247.404Z" fill="#2B2B2B"/>
<path d="M25.8522 239.17C25.749 239.142 25.749 239.142 25.6458 239.114C25.2607 238.901 25.1649 238.432 25.3787 238.047L29.4609 231.068C29.6747 230.682 30.1427 230.587 30.5278 230.801C30.913 231.014 31.0087 231.482 30.7949 231.867L26.7128 238.847C26.5266 239.129 26.1618 239.253 25.8522 239.17Z" fill="white"/>
<path d="M236.776 179.67L140.915 153.984L106.519 282.351L202.381 308.037L236.776 179.67Z" fill="#65A300"/>
<path d="M121.589 196.806C121.279 196.723 121.025 196.434 120.977 196.2C120.882 195.732 121.199 195.374 121.667 195.278L140.588 191.943C141.056 191.847 141.413 192.164 141.509 192.632C141.605 193.1 141.288 193.458 140.82 193.554L121.899 196.889C121.926 196.786 121.692 196.834 121.589 196.806Z" fill="#2B2B2B"/>
<path d="M158.05 233.672C157.74 233.589 157.486 233.3 157.466 232.962L156.101 223.196C156.005 222.728 156.322 222.371 156.79 222.275C157.258 222.179 157.616 222.496 157.712 222.964L159.076 232.73C159.172 233.198 158.855 233.556 158.387 233.652C158.256 233.727 158.153 233.7 158.05 233.672Z" fill="#2B2B2B"/>
<path d="M129.886 261.184C129.68 261.129 129.398 260.943 129.377 260.605C129.282 260.137 129.495 259.752 129.86 259.629L137.701 257.195C138.169 257.1 138.554 257.313 138.678 257.678C138.774 258.146 138.56 258.531 138.195 258.655L130.354 261.088C130.196 261.267 130.092 261.239 129.886 261.184Z" fill="#2B2B2B"/>
<path d="M202.182 244.391L161.938 187.378C161.306 186.435 161.067 185.264 161.371 184.129L195.656 56.1759C196.513 52.9771 200.698 52.2183 202.622 54.9456L242.865 111.958C243.497 112.902 243.736 114.072 243.432 115.207L209.147 243.16C208.29 246.359 204.133 247.015 202.182 244.391Z" fill="white"/>
<path d="M204.216 246.705C203.184 246.429 202.235 245.843 201.603 244.899L161.36 187.886C160.549 186.784 160.289 185.277 160.649 183.936L194.934 55.9822C195.404 54.228 196.851 52.9567 198.62 52.5459C200.464 52.266 202.163 52.9424 203.304 54.4646L243.547 111.477C244.357 112.579 244.617 114.087 244.258 115.428L209.973 243.381C209.503 245.136 208.056 246.407 206.287 246.818C205.509 246.831 204.835 246.871 204.216 246.705ZM200.276 54.2063C199.863 54.0958 199.423 54.0883 198.955 54.1841C197.785 54.4236 196.786 55.2619 196.482 56.397L162.197 184.35C161.948 185.279 162.139 186.215 162.62 186.897L202.864 243.91C203.599 244.881 204.678 245.391 205.952 245.18C207.122 244.94 208.121 244.102 208.425 242.967L242.71 115.013C242.959 114.085 242.767 113.148 242.286 112.467L201.968 55.3232C201.459 54.7445 200.895 54.3722 200.276 54.2063Z" fill="#2B2B2B"/>
<path d="M207.44 152.123L199.595 140.952L202.221 131.149L210.066 142.32L207.44 152.123Z" fill="white"/>
<path d="M207.823 153.996L198.762 141.171L201.914 129.408L210.975 142.232L207.823 153.996ZM200.427 140.733L207.084 150.148L209.158 142.409L202.501 132.994L200.427 140.733Z" fill="#2B2B2B"/>
<path d="M247.178 200.705L218.938 164.936L221.564 155.134L249.804 190.903L247.178 200.705Z" fill="white"/>
<path d="M247.485 202.447L218.104 165.156L221.256 153.392L250.712 190.814L247.588 202.475L247.485 202.447ZM219.873 164.745L246.87 198.964L248.971 191.122L221.975 156.903L219.873 164.745Z" fill="#2B2B2B"/>
<path d="M202.928 224.682L186.324 201.21L191.826 180.676L208.431 204.148L202.928 224.682Z" fill="#65A300"/>
<path d="M225.573 140.171L195.655 97.8697L201.323 76.7161L231.213 119.121L225.573 140.171Z" fill="#2B2B2B"/>
<path d="M204.078 46.6898C205.427 46.8321 206.637 45.8535 206.779 44.5041C206.921 43.1546 205.943 41.9453 204.593 41.803C203.244 41.6608 202.035 42.6393 201.892 43.9888C201.75 45.3383 202.729 46.5475 204.078 46.6898Z" fill="#2B2B2B"/>
<path d="M209.716 53.2902C211.066 53.4325 212.275 52.4539 212.417 51.1044C212.56 49.755 211.581 48.5457 210.231 48.4034C208.882 48.2611 207.673 49.2397 207.53 50.5892C207.388 51.9386 208.367 53.1479 209.716 53.2902Z" fill="#2B2B2B"/>
<path d="M196.286 208.194C195.976 208.111 195.722 207.821 195.702 207.484L195.104 195.269C195.111 194.828 195.428 194.471 195.869 194.478C196.309 194.486 196.667 194.803 196.659 195.243L197.257 207.458C197.25 207.899 196.933 208.256 196.492 208.249C196.52 208.146 196.389 208.221 196.286 208.194Z" fill="#2B2B2B"/>
<path d="M189.88 202.385C189.571 202.302 189.317 202.013 189.296 201.675C189.304 201.235 189.621 200.878 190.061 200.885L202.276 200.287C202.717 200.295 203.074 200.612 203.067 201.052C203.059 201.492 202.742 201.85 202.302 201.842L190.087 202.44C190.087 202.44 189.984 202.413 189.88 202.385Z" fill="#2B2B2B"/>
<path d="M33.1702 144.578C9.21462 151.431 -31.259 160.494 -46.7769 189.515C-48.784 193.29 -45.086 196.825 -45.086 196.825C-45.086 196.825 -44.4047 202.537 -41.6186 203.284C-41.6186 203.284 -43.8394 207.444 -40.0214 208.467C-38.3704 208.91 -34.073 206.08 -29.3204 202.376C-30.1351 204.591 -30.889 207.818 -29.1072 208.185C-26.2934 208.828 -21.2549 201.994 -20.9118 196.998C-20.9044 196.558 -20.8693 196.014 -20.8619 195.574C-17.3144 192.654 -14.1596 189.96 -12.2449 188.593C4.2851 176.432 26.0845 171.435 26.0845 171.435L33.2733 144.606L33.1702 144.578Z" fill="white"/>
<path d="M-40.2708 209.397C-41.509 209.065 -42.3271 208.403 -42.7251 207.412C-43.2741 206.159 -42.9902 204.686 -42.6382 203.785C-44.9211 202.4 -45.6321 198.449 -45.7683 197.306C-46.5311 196.438 -49.4515 192.891 -47.4721 189.219C-33.0231 162.123 3.16452 152.133 27.0371 145.59C29.0678 145.028 31.0985 144.466 33.026 143.877L34.3546 143.459L26.6405 172.248L26.1725 172.344C25.9384 172.392 4.37296 177.341 -11.8953 189.351C-13.5483 190.567 -15.9938 192.676 -18.9349 194.985L-20.223 196.078C-20.2028 196.415 -20.2102 196.855 -20.2931 197.165C-20.4906 201.204 -23.5794 206.127 -26.3344 208.154C-27.4364 208.965 -28.531 209.335 -29.4597 209.086C-30.0788 208.92 -30.5395 208.576 -30.7385 208.08C-31.1917 207.295 -31.2247 206.18 -30.9132 204.605C-37.1327 209.242 -39.1357 209.701 -40.2708 209.397ZM32.0879 145.727C30.6561 146.117 29.0935 146.583 27.4277 147.022C3.76143 153.62 -31.9582 163.514 -46.1105 189.915C-47.8484 193.099 -44.611 196.289 -44.5079 196.317L-44.3291 196.475L-44.2812 196.709C-44.0971 198.086 -43.2553 201.961 -41.3979 202.459L-40.4692 202.708L-40.9244 203.581C-41.1659 204.069 -41.787 205.562 -41.2858 206.581C-41.0869 207.077 -40.6263 207.421 -39.8008 207.642C-39.2848 207.781 -37.3094 207.425 -29.8018 201.695L-27.701 200.046L-28.5986 202.57C-29.6897 205.817 -29.4226 206.884 -29.2716 207.146C-29.196 207.277 -29.0928 207.304 -28.9897 207.332C-28.5769 207.443 -27.9504 207.168 -27.1653 206.715C-24.8305 205.018 -22.0587 200.452 -21.7931 196.984C-21.7857 196.544 -21.7782 196.103 -21.7432 195.56L-21.7634 195.222L-19.8966 193.621C-17.031 191.182 -14.4824 189.1 -12.8294 187.884C2.30924 176.788 22.0652 171.575 25.266 170.774L31.9847 145.699L32.0879 145.727Z" fill="#2B2B2B"/>
<path d="M63.5681 113.684C65.385 113.507 66.8444 113.013 68.2007 112.492C64.5027 108.957 59.3986 107.368 54.5798 108.842C52.6523 109.432 51.0546 110.441 49.7112 111.74C54.1685 113.266 58.7918 114.173 63.5681 113.684Z" fill="#FF3E6C"/>
<path d="M72.4369 119.38C69.88 111.174 61.848 106.478 54.5029 108.713C47.1301 111.051 43.3077 119.538 45.8923 127.64C45.8923 127.64 45.8923 127.64 45.8646 127.743C40.1023 129.849 39.7241 135.388 43.4443 137.602C46.2155 139.229 50.4611 139.482 53.4097 136.733C56.5937 138.471 60.3159 139.026 63.8539 138.204C74.4127 135.946 74.9939 127.586 72.4369 119.38Z" fill="white"/>
<path d="M45.5135 139.371C44.5848 139.122 43.7869 138.798 43.1199 138.398C41.222 137.226 40.1922 135.291 40.3324 133.117C40.5279 130.736 42.3266 128.563 44.9635 127.39C43.8399 123.328 44.1406 119.317 45.7551 115.768C47.4249 112.013 50.4766 109.291 54.2284 108.085C61.9661 105.624 70.4586 110.664 73.139 119.235C74.983 125.148 74.9292 129.889 72.9019 133.328C71.2469 136.202 68.1824 138.146 63.9422 139.111C60.4319 139.829 56.7852 139.405 53.4704 137.743C51.0526 139.749 48.0932 140.062 45.5135 139.371ZM61.4866 109.477C59.3197 108.896 56.9868 108.934 54.8253 109.572C51.5692 110.58 48.8068 113.047 47.3508 116.417C45.7916 119.759 45.5941 123.798 46.8007 127.55L47.0475 128.28L46.3933 128.658C43.9148 129.653 42.2544 131.309 42.0387 133.353C41.858 134.852 42.5857 136.264 44.0229 137.092C46.4091 138.505 50.2898 138.881 52.949 136.387L53.3968 135.954L53.8851 136.195C56.9936 137.802 60.4818 138.405 63.6826 137.604C67.4546 136.734 70.1267 135.017 71.5678 132.528C73.3813 129.475 73.4554 125.07 71.7072 119.625C70.0068 114.414 66.0269 110.693 61.4866 109.477Z" fill="#2B2B2B"/>
<path d="M61.8091 123.792C62.3966 123.845 62.9165 123.413 62.9704 122.825C63.0243 122.238 62.5917 121.718 62.0042 121.664C61.4167 121.61 60.8967 122.043 60.8429 122.63C60.789 123.218 61.2215 123.738 61.8091 123.792Z" fill="#2B2B2B"/>
<path d="M46.2906 128.63C51.8263 126.132 56.9862 121.321 59.4909 115.689C60.5396 113.426 60.9691 110.997 61.0891 108.486C58.9977 108.036 56.7681 108.102 54.6065 108.739C47.2337 111.077 43.4112 119.564 45.9958 127.667C46.0161 128.004 46.1395 128.369 46.2906 128.63Z" fill="#2B2B2B"/>
<path d="M51.056 131.898C48.8762 130.539 46.1509 130.805 44.332 132.64C43.8565 133.176 44.5438 133.913 44.9916 133.48C46.4935 132.002 48.6753 131.702 50.3668 132.819C51.0615 133.116 51.6198 132.27 51.056 131.898Z" fill="#2B2B2B"/>
<path d="M70.6623 124.764C69.6877 122.623 68.3482 120.605 66.7194 118.841C66.3141 118.29 65.4461 119.053 65.8791 119.501C67.4047 121.237 68.6686 123.124 69.6432 125.265C70.0486 125.816 70.9368 125.391 70.6623 124.764Z" fill="#2B2B2B"/>
<path d="M52.8651 115.24C52.3284 120.958 47.3344 125.149 41.6166 124.613C35.8987 124.076 30.9571 118.992 31.4938 113.274C32.0305 107.556 37.7745 103.455 43.4923 103.991C49.2102 104.528 53.4019 109.522 52.8651 115.24Z" fill="#2B2B2B"/>
<path d="M36.8308 121.008C38.823 118.113 37.9003 112.889 33.2218 112.189C31.4123 111.925 29.8018 112.157 28.0806 112.802C25.5745 113.9 25.2575 114.257 22.3682 113.483C17.7524 112.136 13.7078 110.72 8.7454 111.492C1.39482 112.508 -5.3278 117.785 -4.0644 125.865C-1.55985 143.347 26.3292 144.516 34.967 131.679C36.9868 128.681 37.914 124.395 36.8308 121.008Z" fill="#2B2B2B"/>
<path d="M55.4663 213.262C37.2602 217.231 -16.854 216.113 -16.854 216.113C-16.854 216.113 -15.6745 213.775 -13.3707 209.305C-13.1293 208.817 -12.8878 208.328 -12.6464 207.84C-8.43881 199.567 -0.921296 185.544 9.38828 167.293C26.5039 137.263 45.9073 139.144 56.8082 144.277C82.8536 156.454 58.417 185.739 53.4649 195.14C51.1335 199.714 51.3966 204.097 52.5075 207.381C52.6788 207.98 52.8777 208.476 53.0767 208.971C54.1471 211.581 55.4663 213.262 55.4663 213.262Z" fill="#6045AF"/>
<path d="M53.0008 208.841C33.0128 212.443 0.994285 211.827 -13.4466 209.174C-13.2052 208.686 -12.9638 208.197 -12.7224 207.709C1.67069 210.128 32.8084 210.73 52.4315 207.25C52.706 207.877 52.905 208.373 53.0008 208.841Z" fill="white"/>
<path d="M165.354 133.769L131.818 124.783L153.019 113.764L186.555 122.75L165.354 133.769Z" fill="#65A300"/>
<path d="M172.153 156.272L142.435 148.309L154.905 141.807L184.726 149.798L172.153 156.272Z" fill="#2B2B2B"/>
<path d="M166.615 126.586L156.296 123.821C155.883 123.71 155.553 123.29 155.691 122.774C155.83 122.258 156.222 122.032 156.738 122.17L167.057 124.935C167.47 125.045 167.799 125.466 167.661 125.982C167.523 126.497 167.027 126.696 166.615 126.586Z" fill="white"/>
<path d="M155.459 104.242C155.046 104.132 154.716 103.712 154.854 103.196L157.868 91.9481C157.979 91.5354 158.399 91.2055 158.915 91.3437C159.431 91.482 159.657 91.8746 159.519 92.3905L156.505 103.638C156.264 104.126 155.871 104.353 155.459 104.242Z" fill="#2B2B2B"/>
<path d="M144.477 103.954C144.271 103.899 144.092 103.74 143.941 103.479L141.546 97.9707C141.319 97.5782 141.561 97.0899 141.953 96.8633C142.346 96.6367 142.834 96.8781 143.061 97.2706L145.456 102.779C145.682 103.171 145.441 103.659 145.049 103.886C144.787 104.037 144.684 104.009 144.477 103.954Z" fill="#2B2B2B"/>
<path d="M152.871 120.913C151.189 117.697 132.621 107.745 122.259 118.351C110.503 131.68 101.323 149.017 94.8369 152.587C83.1721 158.973 70.7046 157.623 62.2432 155.356C61.5781 153.298 60.6716 151.728 59.2897 150.694C53.7896 146.455 47.0251 146.523 40.6373 159.631C34.2494 172.739 37.0363 184.214 44.0512 187.753C49.0096 190.298 55.3822 184.264 59.3058 177.463C68.495 181.141 83.5679 184.738 99.8984 178.275C109.289 174.598 118.102 165.236 123.57 155.973C123.756 155.691 123.997 155.203 124.342 154.742C124.797 153.869 125.252 152.995 125.68 152.225C130.763 142.749 134.725 138.281 134.725 138.281C136.595 139.556 139.426 137.66 141.715 134.071C144.114 130.068 142.878 128.078 142.878 128.078C144.704 125.803 144.061 122.423 144.061 122.423C144.061 122.423 155.432 125.802 152.871 120.913Z" fill="white"/>
<path d="M44.8356 188.958C44.4229 188.848 44.0101 188.737 43.625 188.523C36.4038 184.929 33.0806 172.979 39.8408 159.307C43.2209 152.471 46.914 148.594 51.0233 147.705C53.8592 147.027 56.8517 147.828 59.7666 150.158C61.1486 151.192 62.1858 152.686 62.8509 154.745C71.1059 156.957 83.1607 158.196 94.4606 151.934C97.9656 149.997 102.453 143.568 107.761 136.143C111.876 130.278 116.522 123.67 121.724 117.876C125.707 113.745 131.434 112.183 138.053 113.071C145.394 114.154 152.477 118.263 153.63 120.563C154.358 121.975 154.109 122.903 153.661 123.336C152.207 125.048 147.405 123.983 144.826 123.291C144.831 124.509 144.774 126.374 143.685 127.963C143.979 128.926 144.28 131.108 142.308 134.34C140.577 137.084 138.524 138.967 136.755 139.377C136.053 139.521 135.509 139.486 134.918 139.217C133.781 140.571 130.39 144.971 126.376 152.522C125.921 153.396 125.466 154.269 125.01 155.142C124.741 155.734 124.397 156.195 124.21 156.477C119.356 164.687 110.398 175.005 100.119 179.108C84.1811 185.344 69.3827 182.374 59.5744 178.53C55.6581 184.89 49.8919 190.313 44.8356 188.958ZM54.9093 149.299C53.6711 148.967 52.5562 149 51.3861 149.239C47.8481 150.061 44.4443 153.683 41.3057 160.031C35.0007 172.83 37.8984 183.892 44.3494 187.058C48.6408 189.204 54.7719 183.658 58.5371 177.035L58.9093 176.471L59.5008 176.741C68.9995 180.502 83.715 183.782 99.5498 177.518C109.436 173.642 118.105 163.578 122.904 155.573C123.09 155.292 123.332 154.803 123.573 154.315C124.028 153.442 124.484 152.568 124.939 151.695C130.022 142.218 133.984 137.75 134.142 137.571L134.618 137.035L135.182 137.407C135.567 137.621 135.979 137.732 136.448 137.636C137.852 137.349 139.484 135.795 141.001 133.437C143.132 130.026 142.177 128.222 142.177 128.222L141.875 127.699L142.22 127.238C143.729 125.32 143.21 122.305 143.237 122.202L143.026 120.929L144.339 121.392C147.82 122.435 151.955 123.1 152.617 122.282C152.775 122.104 152.652 121.739 152.349 121.215C151.546 119.673 145.316 115.681 137.872 114.571C133.606 113.981 127.461 114.215 122.9 118.854C117.828 124.573 113.182 131.181 109.095 136.943C103.546 144.857 99.1135 151.079 95.3468 153.166C83.4204 159.703 70.6433 158.27 62.0787 155.975L61.6659 155.865L61.5425 155.5C60.953 153.573 59.9913 152.209 58.9189 151.258C57.5093 150.327 56.1476 149.631 54.9093 149.299Z" fill="#2B2B2B"/>
<path d="M137.458 131.382C136.425 132.764 135.391 134.145 134.639 135.714C134.37 136.305 135.215 136.863 135.588 136.3C136.415 134.862 137.243 133.425 138.249 132.146C138.621 131.583 137.934 130.845 137.458 131.382Z" fill="#2B2B2B"/>
<path d="M142.969 121.135C141.044 120.066 138.952 119.617 136.798 119.814C136.124 119.854 136.157 120.969 136.831 120.928C138.854 120.807 140.739 121.201 142.486 122.112C143.078 122.381 143.561 121.404 142.969 121.135Z" fill="#2B2B2B"/>
<path d="M142.632 127.349C141.636 126.529 140.294 126.169 138.993 126.484C138.291 126.628 138.586 127.592 139.26 127.551C140.196 127.36 141.125 127.609 141.868 128.139C142.404 128.615 143.169 127.824 142.632 127.349Z" fill="#2B2B2B"/>
<path d="M56.4574 177.363L56.3542 177.335C52.6745 175.796 50.0968 173.447 50.0213 173.316C49.6638 172.999 49.6712 172.559 49.9882 172.201C50.3052 171.844 50.7456 171.851 51.103 172.168C51.103 172.168 53.6052 174.387 56.9753 175.843C57.3604 176.057 57.5871 176.449 57.3733 176.834C57.235 177.35 56.8702 177.474 56.4574 177.363Z" fill="#2B2B2B"/>
</g>
</svg>
