<svg width="260" height="260" viewBox="0 0 260 260" fill="none" xmlns="http://www.w3.org/2000/svg">
<circle cx="130" cy="130" r="130" fill="#F9F9F9"/>
<mask id="mask0" mask-type="alpha" maskUnits="userSpaceOnUse" x="0" y="0" width="260" height="260">
<circle cx="130" cy="130" r="130" fill="white"/>
</mask>
<g mask="url(#mask0)">
<path d="M191.205 270.472C191.205 270.472 189.194 263.908 183.476 262.108C180.194 261.049 175.853 261.896 171.83 254.167C168.971 248.555 165.265 229.18 160.183 211.498C144.513 156.23 125.773 126.584 125.773 126.584L113.491 137.913H83.5278C78.975 167.771 30.6948 266.237 30.6948 266.237L71.8812 287.942C71.8812 287.942 74.8458 281.801 71.8812 276.613C68.9166 271.425 60.1288 268.566 85.7512 232.568C96.8683 216.898 105.127 196.887 110.95 179.205C127.361 219.227 146.207 282.436 146.207 282.436L191.205 270.472Z" fill="white"/>
<path d="M72.3045 289L29.7417 266.554L30.0593 265.813C30.5887 264.86 78.3395 167.135 82.7864 137.701L82.8923 137.065H113.279L125.984 125.313L126.514 126.16C126.726 126.478 145.466 156.547 161.03 211.286C163.042 218.485 164.947 226.003 166.536 232.673C168.865 242.308 170.877 250.566 172.571 253.848C175.641 259.778 178.712 260.413 181.676 260.942C182.417 261.048 183.053 261.26 183.794 261.472C189.829 263.377 191.946 270.048 192.052 270.365L192.264 271.107L145.784 283.6L145.572 282.859C145.36 282.224 127.149 221.344 111.162 181.64C104.068 202.815 95.8093 220.073 86.598 233.096C64.2578 264.542 68.4929 270.26 71.5634 274.495C71.9869 275.13 72.4104 275.659 72.728 276.295C75.9044 281.8 72.8339 288.153 72.728 288.365L72.3045 289ZM31.7534 265.813L71.4575 286.776C72.0928 285.082 73.3633 280.636 71.1399 276.93C70.8222 276.4 70.3987 275.871 69.9752 275.342C66.3754 270.471 61.9285 264.436 85.0098 232.038C94.4329 218.803 102.903 200.91 110.103 178.993L110.738 176.981L111.585 178.993C126.832 216.262 144.513 274.389 146.631 281.588L190.04 269.942C189.299 268.248 187.288 264.224 183.158 262.954C182.523 262.742 181.888 262.636 181.253 262.53C178.288 262.001 174.476 261.26 171.088 254.59C169.288 251.202 167.383 243.155 164.947 233.096C163.359 226.426 161.454 218.909 159.442 211.815C145.36 162.264 128.737 133.042 125.667 127.854L113.914 138.759H84.2687C79.2924 167.77 36.0944 257.025 31.7534 265.813Z" fill="#2B2B2B"/>
<path d="M171.83 254.167C161.454 257.555 151.184 261.366 140.702 264.543C144.09 275.448 146.207 282.436 146.207 282.436L191.205 270.366C191.205 270.366 189.194 263.801 183.476 262.001C180.194 261.049 175.959 261.896 171.83 254.167Z" fill="#2B2B2B"/>
<path d="M174.158 256.39C172.358 258.296 170.558 260.096 168.758 262.001C168.335 262.425 168.97 263.166 169.394 262.743C171.194 260.837 172.993 259.037 174.793 257.131C175.323 256.708 174.582 255.966 174.158 256.39Z" fill="white"/>
<path d="M176.91 257.448C175.11 259.354 173.31 261.154 171.51 263.06C171.087 263.484 171.722 264.225 172.146 263.801C173.945 261.895 175.745 260.095 177.545 258.19C177.969 257.66 177.334 257.025 176.91 257.448Z" fill="white"/>
<path d="M68.8103 262.848C58.8578 258.19 48.6935 254.06 38.8469 249.296C33.9765 259.566 30.6943 266.236 30.6943 266.236L71.8807 287.941C71.8807 287.941 74.8453 281.8 71.8807 276.612C70.1867 273.542 66.481 271.318 68.8103 262.848Z" fill="#2B2B2B"/>
<path d="M110.736 177.934C110.63 177.934 110.525 177.934 110.419 177.828C109.995 177.616 109.783 177.193 109.995 176.769C113.913 166.817 115.183 159.829 115.183 159.723L115.289 159.194L122.595 156.97C123.018 156.864 123.442 157.076 123.548 157.5C123.653 157.923 123.442 158.347 123.018 158.453L116.665 160.358C116.348 162.158 114.866 168.617 111.477 177.193C111.372 177.722 111.054 177.934 110.736 177.934Z" fill="#2B2B2B"/>
<path d="M198.722 136.642C196.499 133.678 193.534 131.56 183.582 131.349C173.841 131.243 165.9 125.737 160.712 119.596C156.9 123.62 153.301 127.855 149.595 132.09C148.007 133.784 146.63 135.584 145.148 137.384C156.794 149.665 172.041 151.359 177.546 150.618C187.817 149.348 184.958 154.642 192.687 151.677C197.346 149.877 202.322 146.701 202.322 141.936C202.322 140.136 199.993 138.231 198.722 136.642Z" fill="white"/>
<path d="M188.875 153.371C187.499 153.371 186.652 152.947 185.699 152.418C184.216 151.677 182.522 150.724 177.652 151.359C172.676 151.994 156.9 150.829 144.512 137.912L143.983 137.383L144.936 136.218C146.206 134.736 147.477 133.148 148.853 131.56C150.018 130.183 151.183 128.913 152.453 127.536C154.888 124.784 157.429 121.819 160.076 119.066L160.712 118.431L161.241 119.066C167.276 126.266 175.429 130.395 183.581 130.607C193.322 130.713 196.71 132.724 199.357 136.218C199.675 136.642 200.098 137.065 200.522 137.595C201.792 138.971 203.063 140.348 203.063 141.83C203.063 146.065 199.569 149.771 192.898 152.312C191.204 153.053 189.828 153.371 188.875 153.371ZM180.617 149.559C183.687 149.559 185.169 150.3 186.44 150.935C187.922 151.677 188.875 152.206 192.475 150.83C196.604 149.135 201.58 146.277 201.58 141.83C201.58 140.983 200.416 139.712 199.463 138.654C198.933 138.124 198.51 137.595 198.192 137.171C196.286 134.63 193.745 132.407 183.687 132.195C175.323 132.089 167.064 127.96 160.712 120.866C158.382 123.407 156.053 126.054 153.724 128.595C152.559 129.972 151.394 131.242 150.124 132.619C148.747 134.101 147.477 135.689 146.206 137.171L146.1 137.277C157.853 149.241 172.993 150.3 177.334 149.771C178.711 149.665 179.77 149.559 180.617 149.559Z" fill="#2B2B2B"/>
<path d="M162.723 121.714C157.429 127.431 150.018 136.113 144.512 141.724C140.489 137.807 136.889 132.725 134.136 126.054C133.077 123.513 132.23 120.231 131.489 116.631C129.266 105.514 128.736 90.7973 128.525 81.48C128.419 76.0803 128.525 72.3745 128.525 72.3745C131.913 72.9039 134.877 74.2803 137.524 76.292C148.43 84.3387 152.665 101.914 154.782 109.008C155.841 112.926 158.7 117.69 162.723 121.714Z" fill="#2B2B2B"/>
<path d="M144.513 142.888L143.984 142.359C139.537 138.018 135.937 132.618 133.396 126.477C132.337 124.042 131.49 120.76 130.749 116.948C128.631 106.043 127.996 91.7493 127.784 81.6909C127.678 76.2912 127.784 72.6914 127.784 72.5855V71.6326L128.737 71.7385C132.019 72.2679 135.196 73.6443 138.054 75.7618C148.325 83.385 152.666 98.7373 155.101 106.996C155.313 107.631 155.524 108.266 155.63 108.902C156.795 112.819 159.654 117.478 163.359 121.183L163.889 121.713L163.359 122.242C161.348 124.466 159.018 127.007 156.583 129.759C152.666 134.206 148.536 138.759 145.148 142.253L144.513 142.888ZM129.267 73.5384C129.267 74.9148 129.267 77.8794 129.267 81.5851C129.478 91.5376 130.114 105.725 132.231 116.525C132.972 120.336 133.819 123.407 134.772 125.736C137.207 131.453 140.384 136.43 144.407 140.559C147.689 137.277 151.501 132.936 155.207 128.701C157.43 126.16 159.548 123.724 161.559 121.713C157.96 117.901 155.101 113.348 153.936 109.325C153.724 108.796 153.619 108.16 153.407 107.419C151.077 99.2667 146.736 84.232 136.996 77.0324C134.666 75.2324 132.019 74.0678 129.267 73.5384Z" fill="#2B2B2B"/>
<path d="M197.559 144.795C195.865 143.101 193.218 140.242 190.571 140.665C188.665 140.983 187.606 142.783 188.03 144.583C187.606 144.583 187.183 144.583 186.653 144.689C184.536 145.324 185.171 147.971 186.336 149.136C186.759 149.559 187.924 148.712 187.394 148.289C187.183 148.077 186.865 147.759 186.653 147.442C186.441 147.018 186.336 146.171 186.865 145.853C187.5 145.43 188.771 146.065 189.406 146.383C190.465 146.912 191.629 147.759 192.688 148.394C193.218 148.712 193.959 148.077 193.218 147.442C192.053 146.383 190.571 145.218 188.983 144.9C188.983 144.9 188.983 144.9 188.983 144.795C188.559 143.736 189.088 142.677 190.147 142.042C192.582 140.559 195.335 144.477 196.5 145.536C197.241 146.065 197.982 145.218 197.559 144.795Z" fill="#2B2B2B"/>
<path d="M192.265 138.23C191.312 138.759 190.783 139.818 191.1 140.877C191.206 141.618 192.265 141.3 192.159 140.559C192.053 139.924 192.371 139.395 192.9 139.183C193.429 138.865 192.9 137.912 192.265 138.23Z" fill="#2B2B2B"/>
<path d="M200.839 140.665C200.204 139.818 199.357 139.289 198.298 138.971C197.663 138.759 197.451 139.712 198.087 139.924C198.934 140.136 199.675 140.665 200.204 141.3C200.522 141.83 201.263 141.195 200.839 140.665Z" fill="#2B2B2B"/>
<path d="M196.711 134.207C196.393 133.571 195.44 134.101 195.758 134.736C196.393 135.795 196.922 136.748 197.346 138.23C197.558 139.712 197.134 142.147 195.123 140.665C194.17 139.712 193.64 138.759 193.323 137.912C193.217 137.595 192.899 137.489 192.581 137.595C189.088 139.183 185.488 140.03 181.57 140.03C180.935 140.03 180.935 141.089 181.57 141.089C185.382 141.089 189.088 140.348 192.581 138.759C193.323 140.665 195.652 143.736 197.769 142.148C199.993 140.559 197.664 135.795 196.711 134.207Z" fill="#2B2B2B"/>
<path d="M247.214 131.03H247.108L234.402 128.701C233.979 128.595 233.661 128.171 233.767 127.748C233.873 127.324 234.296 127.007 234.72 127.113L247.425 129.442C247.849 129.548 248.166 129.971 248.061 130.395C247.955 130.818 247.637 131.03 247.214 131.03Z" fill="#2B2B2B"/>
<path d="M239.697 136.324H239.591C239.167 136.218 238.85 135.794 238.956 135.371L241.285 122.666C241.391 122.242 241.814 121.924 242.238 122.03C242.661 122.136 242.979 122.56 242.873 122.983L240.544 135.688C240.332 136.006 240.014 136.324 239.697 136.324Z" fill="#2B2B2B"/>
<path d="M251.342 125.736C250.072 125.736 248.907 125.101 248.166 124.042C247.001 122.242 247.425 119.913 249.119 118.642C249.966 118.007 251.025 117.795 251.978 118.007C253.036 118.219 253.883 118.748 254.413 119.595C255.048 120.442 255.26 121.501 255.048 122.454C254.836 123.407 254.307 124.36 253.46 124.889C252.825 125.524 252.083 125.736 251.342 125.736ZM251.342 119.595C250.919 119.595 250.389 119.701 250.072 120.019C249.013 120.76 248.801 122.136 249.542 123.195C250.283 124.254 251.66 124.466 252.719 123.725C253.248 123.407 253.566 122.878 253.672 122.242C253.777 121.607 253.672 121.078 253.354 120.548C253.036 120.019 252.507 119.701 251.872 119.595C251.554 119.595 251.448 119.595 251.342 119.595Z" fill="#2B2B2B"/>
<path d="M128.523 72.5859C104.913 75.2329 94.6425 95.5614 86.3841 118.854C78.1256 142.148 79.2903 140.665 79.2903 140.665L135.723 142.253C135.723 142.253 127.041 123.725 132.123 115.361C137.311 106.89 153.722 82.8561 128.523 72.5859Z" fill="#2B2B2B"/>
<path d="M136.994 142.994L79.6087 141.3L79.3969 141.512L78.7616 141.194C78.0205 140.771 77.7029 140.559 85.5378 118.431C93.0551 97.255 103.113 74.4913 128.312 71.6326H128.524L128.736 71.7385C135.83 74.5972 140.277 78.8323 142.076 84.232C145.57 94.9257 137.841 107.419 133.712 114.195C133.394 114.725 133.077 115.148 132.865 115.572C127.995 123.513 136.465 141.512 136.465 141.724L136.994 142.994ZM80.2439 139.818L134.559 141.406C132.759 137.171 126.936 122.454 131.489 114.937C131.7 114.513 132.018 113.984 132.336 113.56C136.359 107.102 143.876 94.9257 140.594 84.9732C139.006 80.1028 134.877 76.1853 128.418 73.4325C104.384 76.2912 94.5374 98.5255 87.2318 119.172C82.0438 133.465 80.5615 138.23 80.2439 139.818Z" fill="#2B2B2B"/>
<path d="M132.758 113.348C132.547 113.348 132.335 113.242 132.229 113.136C131.911 112.819 131.911 112.289 132.229 111.972C137.311 106.784 141.652 95.4548 140.276 83.9142C140.276 83.4907 140.487 83.0672 141.017 83.0672C141.44 82.9613 141.864 83.2789 141.864 83.8083C143.346 95.8783 138.687 107.737 133.394 113.136C133.182 113.242 132.97 113.348 132.758 113.348Z" fill="white"/>
<path d="M187.816 166.287L204.863 178.78C204.863 178.78 209.839 170.31 202.533 164.593C195.122 158.876 187.816 166.287 187.816 166.287Z" fill="#65A300"/>
<path d="M209.207 147.478L199.287 148.287L200.096 158.207L210.015 157.398L209.207 147.478Z" fill="#2B2B2B"/>
<path d="M183.263 183.863C183.263 183.863 183.158 183.863 183.263 183.863C182.734 183.863 182.416 183.44 182.522 183.016L185.593 148.288C185.593 147.865 186.016 147.547 186.44 147.547C186.863 147.547 187.181 147.971 187.181 148.394L184.11 183.122C184.005 183.546 183.687 183.863 183.263 183.863Z" fill="#2B2B2B"/>
<path d="M236.73 147.123H236.624L199.885 140.665C199.461 140.559 199.144 140.135 199.25 139.712C199.355 139.288 199.779 138.971 200.202 139.077L236.942 145.535C237.365 145.641 237.683 146.065 237.577 146.488C237.471 146.912 237.154 147.123 236.73 147.123Z" fill="#2B2B2B"/>
<path d="M238.536 141.142L178.963 182.328L210.033 227.269L269.606 186.083L238.536 141.142Z" fill="white"/>
<path d="M238.319 142.253L268.495 185.875L210.262 226.214L180.087 182.593L238.319 142.253ZM238.743 140.03L237.472 140.983L179.24 181.322L177.969 182.275L178.922 183.545L209.097 227.167L210.05 228.438L211.321 227.485L269.553 187.145L270.824 186.192L269.871 184.922L239.696 141.3L238.743 140.03Z" fill="#2B2B2B"/>
<path d="M197.134 191.274C196.922 191.274 196.604 191.169 196.498 190.957C196.287 190.639 196.287 190.11 196.71 189.898L218.098 175.075C218.415 174.863 218.945 174.863 219.156 175.287C219.368 175.605 219.368 176.134 218.945 176.346L197.557 191.169C197.451 191.169 197.345 191.274 197.134 191.274Z" fill="#2B2B2B"/>
<path d="M202.322 198.791C202.11 198.791 201.792 198.685 201.686 198.474C201.475 198.156 201.475 197.627 201.898 197.415L223.285 182.592C223.603 182.38 224.133 182.38 224.344 182.804C224.556 183.227 224.556 183.651 224.133 183.862L202.745 198.685C202.639 198.685 202.533 198.791 202.322 198.791Z" fill="#2B2B2B"/>
<path d="M225.824 174.01C227.122 173.112 227.447 171.332 226.549 170.033C225.652 168.735 223.871 168.41 222.572 169.308C221.274 170.205 220.949 171.986 221.847 173.285C222.745 174.583 224.525 174.908 225.824 174.01Z" fill="#65A300"/>
<path d="M255.26 166.499L268.6 185.769L241.496 204.509C239.802 203.238 238.214 201.65 236.943 199.744C230.273 190.109 232.708 176.981 242.343 170.31C246.366 167.558 250.919 166.393 255.26 166.499Z" fill="#65A300"/>
<path d="M74.4188 138.655C77.8069 140.772 81.5126 145.325 80.7714 151.466C80.242 155.278 76.2187 161.63 73.8894 159.619C69.1249 155.172 74.4188 138.655 74.4188 138.655Z" fill="white"/>
<path d="M74.8426 160.676C74.3132 160.676 73.7838 160.464 73.2544 160.041C68.1723 155.382 73.3603 138.971 73.5721 138.336L73.8897 137.383L74.7367 137.912C78.5483 140.348 82.254 145.112 81.407 151.465C80.9835 154.641 78.2307 159.617 75.6896 160.57C75.4779 160.676 75.1602 160.676 74.8426 160.676ZM74.8426 139.924C73.3603 145.006 71.031 155.912 74.4191 158.982C74.6308 159.088 74.8426 159.3 75.2661 159.088C77.066 158.453 79.6071 154.218 79.9247 151.359C80.6659 146.171 77.913 142.148 74.8426 139.924Z" fill="#2B2B2B"/>
<path d="M90.0897 188.416C89.7721 188.416 89.4545 188.204 89.3486 187.886L74.6316 152.629L57.4794 154.747L37.6803 186.404C37.4686 186.828 36.9392 186.933 36.6215 186.616C36.198 186.404 36.0922 185.875 36.4098 185.557L56.6324 153.37L75.6904 150.935L90.8309 187.357C91.0426 187.781 90.8309 188.204 90.4074 188.416C90.3015 188.416 90.1956 188.416 90.0897 188.416Z" fill="#2B2B2B"/>
<path d="M76.8535 141.724C77.3829 137.066 78.6535 131.031 80.9828 124.996C73.7831 124.043 66.4775 123.513 59.2779 121.925C52.2899 142.783 53.8781 160.677 61.5013 159.194C61.5013 159.194 63.3012 161.418 67.6422 160.147C67.6422 160.147 69.7597 161.524 71.9832 160.782C73.9948 160.147 74.5242 158.241 75.0536 155.171" fill="white"/>
<path d="M70.6079 161.841C69.2315 161.841 68.0669 161.311 67.5375 160.994C63.9376 161.946 61.926 160.676 61.1848 160.041C59.5967 160.252 58.1144 159.617 56.9497 158.347C52.397 153.159 53.0323 137.7 58.432 121.713L58.6438 121.078L59.3849 121.184C64.3612 122.242 69.4433 122.878 74.4195 123.407C76.643 123.619 78.7605 123.936 80.984 124.254L81.9368 124.36L81.6192 125.313C79.184 131.771 78.1252 137.806 77.5959 141.83C77.49 142.253 77.1724 142.571 76.7489 142.571C76.3253 142.465 76.0077 142.147 76.0077 141.724C76.5371 137.806 77.49 131.983 79.8193 125.736C78.0194 125.525 76.1136 125.313 74.2078 125.101C69.4433 124.572 64.5729 123.936 59.7025 122.983C54.3028 139.5 54.6204 153.37 58.1144 157.394C58.9614 158.347 60.0202 158.77 61.1848 158.558L61.6083 158.452L61.926 158.876C62.0319 158.982 63.5141 160.676 67.2199 159.617L67.5375 159.511L67.8551 159.723C67.8551 159.723 69.655 160.888 71.5608 160.252C73.149 159.723 73.5725 158.347 74.1019 155.276C74.2078 154.853 74.6313 154.535 75.0548 154.641C75.4783 154.747 75.796 155.17 75.6901 155.594C75.1607 158.77 74.6313 160.994 72.0902 161.841C71.6667 161.735 71.1373 161.841 70.6079 161.841Z" fill="#2B2B2B"/>
<path d="M128.523 72.5862C128.523 72.5862 127.358 76.2919 123.97 81.2682C119.947 87.3032 112.853 95.3499 100.995 101.173C96.5481 103.397 92.8424 106.361 89.7719 109.855C84.9016 115.361 81.8311 121.925 79.8194 128.278C72.9374 126.16 60.3379 124.466 53.2441 122.984C54.0912 120.337 55.0441 117.69 56.2087 115.043C67.8553 87.6208 93.3718 73.0097 115.924 71.951C120.265 71.4216 124.5 71.7392 128.523 72.5862Z" fill="#2B2B2B"/>
<path d="M80.3481 129.124L79.607 128.913C75.3719 127.642 68.8074 126.478 63.09 125.419C59.3843 124.783 55.8904 124.148 53.1376 123.513L52.2905 123.301L52.6082 122.454C53.5611 119.595 54.514 116.949 55.5727 114.407C68.5957 83.7029 96.2298 71.7387 115.923 70.7858C120.264 70.5741 124.605 70.8917 128.628 71.6328L129.475 71.8446L129.158 72.6916C129.158 72.7975 127.887 76.5033 124.499 81.4795C120.582 87.4087 113.382 95.6671 101.206 101.596C97.0768 103.608 93.371 106.467 90.3006 110.066C86.0655 114.831 82.7833 120.972 80.454 128.172L80.3481 129.124ZM54.3022 122.136C56.8433 122.666 60.0196 123.195 63.3018 123.831C69.1251 124.889 75.0542 125.842 79.2893 127.113C81.7245 119.913 85.0067 113.878 89.2418 109.114C92.524 105.302 96.4415 102.337 100.677 100.326C112.535 94.5025 119.523 86.4558 123.334 80.7384C125.664 77.2444 126.934 74.4916 127.464 73.1152C123.758 72.4799 119.946 72.2682 116.029 72.4799C96.7591 73.4328 69.7603 85.1852 57.055 115.149C56.1021 117.372 55.1492 119.701 54.3022 122.136Z" fill="#2B2B2B"/>
<path d="M90.9373 108.161C90.8315 108.161 90.6197 108.161 90.5138 108.055C90.1962 107.843 90.0903 107.314 90.3021 106.996C90.5138 106.573 96.5489 97.5734 102.69 93.4441C103.007 93.2324 103.537 93.3383 103.749 93.6559C103.96 93.9735 103.854 94.5029 103.537 94.7147C97.6076 98.6322 91.6785 107.738 91.5726 107.843C91.4667 108.055 91.1491 108.161 90.9373 108.161Z" fill="white"/>
<path d="M67.643 150.194C66.6901 153.264 66.4783 156.335 66.9018 159.405C67.0077 160.041 68.0665 159.829 67.9606 159.088C67.5371 156.123 67.7489 153.264 68.7018 150.406C68.9135 149.77 67.8547 149.453 67.643 150.194Z" fill="#2B2B2B"/>
<path d="M61.7137 149.982C61.8196 149.347 60.7608 149.029 60.6549 149.665C60.2314 152.206 60.3373 154.641 60.5491 157.182C60.5491 157.817 61.6078 157.817 61.6078 157.182C61.3961 154.853 61.2902 152.417 61.7137 149.982Z" fill="#2B2B2B"/>
<path d="M78.0209 149.771C76.6445 149.559 75.7975 150.618 75.374 151.782C74.527 153.794 74.1035 155.912 73.8917 158.029C73.7858 158.665 74.8446 158.665 74.9505 158.029C75.1622 156.441 75.7975 150.512 78.1268 150.83C78.6562 150.935 78.6562 149.877 78.0209 149.771Z" fill="#2B2B2B"/>
<path d="M139.115 42.8345C137.209 39.7641 134.244 37.4347 130.751 36.7995C123.233 35.5289 116.034 41.2463 114.657 49.6106C114.657 49.6106 114.657 49.6107 114.657 49.7166C114.551 50.5636 114.445 51.4106 114.445 52.2576C111.057 53.5281 110.422 57.975 112.116 60.7278C113.704 63.163 116.351 64.5394 119.527 63.6923C121.327 65.2805 123.339 66.4452 125.668 66.9746C136.15 69.6215 141.974 62.9512 141.762 54.1634C141.656 50.3518 141.232 46.1167 139.115 42.8345Z" fill="white"/>
<path d="M130.009 68.4565C128.526 68.4565 127.044 68.2447 125.35 67.8212C123.127 67.2918 121.009 66.1272 119.209 64.6449C116.033 65.2802 113.174 64.0096 111.374 61.1509C110.315 59.351 109.998 57.0217 110.633 55.01C111.162 53.5278 112.115 52.3631 113.492 51.7278C113.492 50.9867 113.598 50.2455 113.704 49.5044V49.3985C114.445 44.9516 116.88 40.9283 120.48 38.3872C123.55 36.1638 127.256 35.3168 130.75 35.9521C134.35 36.5873 137.526 38.8108 139.749 42.3047C142.079 45.9046 142.396 50.5631 142.502 54.163C142.608 59.1392 140.808 63.3744 137.632 65.9154C135.514 67.6095 132.867 68.4565 130.009 68.4565ZM119.633 62.9509L119.95 63.2685C121.644 64.7508 123.656 65.8096 125.774 66.4448C130.115 67.6095 133.926 67.0801 136.573 64.8567C139.326 62.6332 140.914 58.8216 140.914 54.3747C140.914 50.7749 140.491 46.6457 138.479 43.3635C136.467 40.2931 133.714 38.2813 130.644 37.7519C127.468 37.2226 124.291 37.9637 121.538 39.9754C118.362 42.1988 116.139 45.9045 115.398 49.9279V50.0338C115.292 50.7749 115.186 51.5161 115.186 52.469V52.9984L114.656 53.2101C113.174 53.7395 112.539 54.9041 112.221 55.7511C111.692 57.2334 111.904 59.1392 112.751 60.5156C114.233 62.8449 116.562 63.7978 119.315 63.1626L119.633 62.9509Z" fill="#2B2B2B"/>
<path d="M131.824 52.9724C132.137 52.478 131.989 51.8238 131.495 51.5112C131.001 51.1986 130.346 51.346 130.034 51.8404C129.721 52.3348 129.869 52.989 130.363 53.3016C130.857 53.6142 131.512 53.4668 131.824 52.9724Z" fill="#2B2B2B"/>
<path d="M137.737 58.1865C137.843 55.8572 137.525 53.4219 136.996 51.1985C136.784 50.5632 135.831 50.775 135.937 51.4103C136.466 53.6337 136.784 55.8572 136.678 58.1865C136.678 58.8217 137.737 58.8217 137.737 58.1865Z" fill="#2B2B2B"/>
<path d="M120.48 57.8687C119.209 55.7512 116.562 54.6924 114.233 55.4336C113.598 55.6453 113.81 56.7041 114.445 56.4923C116.351 55.8571 118.468 56.5982 119.527 58.2923C119.845 58.9275 120.798 58.504 120.48 57.8687Z" fill="#2B2B2B"/>
<path d="M119.95 52.4688C121.75 54.5864 122.703 50.4572 127.996 46.5397C130.326 44.8456 143.137 43.5751 143.137 38.9165C143.137 32.2462 134.243 37.3283 130.643 36.693C123.126 35.4225 112.75 41.3517 113.809 52.8923C113.809 53.1041 118.785 52.0453 119.95 52.4688Z" fill="#2B2B2B"/>
<path d="M116.667 45.9046C119.103 44.1046 118.891 43.6812 121.75 42.8342C121.644 34.4698 111.056 23.1409 99.9387 30.2347C94.8566 33.5169 94.0096 41.0342 93.7978 41.5636C88.6098 39.5519 81.8336 39.9754 77.8103 43.6812C71.8811 49.0809 74.1046 58.3981 80.3514 62.5274C87.1275 67.0801 96.6565 66.2331 103.75 62.4215C115.079 56.2806 112.221 42.3048 113.279 42.093C114.656 41.7754 116.032 44.5282 116.667 45.9046Z" fill="#2B2B2B"/>
<path d="M137.526 76.3977C137.526 76.5036 137.42 76.5036 137.42 76.6095C137.208 76.9271 136.996 77.2448 136.785 77.5624C134.879 80.1035 131.703 81.374 128.632 81.5858C128.526 81.5858 128.315 81.5858 128.209 81.5858C126.726 81.6916 125.35 81.4799 124.079 81.1622C121.009 80.3152 118.468 78.1977 117.091 75.5507C116.456 74.3861 116.139 73.0097 116.033 71.6332C120.374 71.4215 124.503 71.7392 128.526 72.4803C131.914 73.1156 134.879 74.4919 137.526 76.3977Z" fill="white"/>
<path d="M127.361 82.4322C126.09 82.4322 124.926 82.2204 123.761 81.9028C120.479 80.9499 117.726 78.8323 116.35 75.8677C115.714 74.5972 115.291 73.1149 115.185 71.6326V70.8915H115.926C120.267 70.6798 124.608 70.9974 128.632 71.7386C131.914 72.2679 135.09 73.6443 137.949 75.7619L138.478 76.0795L138.266 76.6089C138.266 76.7148 138.161 76.8207 138.161 76.8207C137.949 77.2442 137.631 77.6677 137.419 77.8794C135.514 80.3146 132.337 81.9028 128.632 82.2204C128.526 82.2204 128.42 82.2204 128.208 82.2204C127.89 82.4322 127.679 82.4322 127.361 82.4322ZM116.879 72.4797C116.985 73.4326 117.303 74.3855 117.726 75.2325C118.997 77.6677 121.326 79.5735 124.185 80.4205C125.455 80.7382 126.726 80.9499 128.102 80.844C128.208 80.844 128.314 80.844 128.42 80.844C131.702 80.5264 134.455 79.15 136.043 77.1383C136.149 77.0324 136.255 76.8207 136.361 76.7148C133.925 75.0208 131.173 73.8561 128.314 73.4326C124.714 72.5856 120.797 72.268 116.879 72.4797Z" fill="#2B2B2B"/>
<path d="M63.5852 167.374L46.3301 175.71L54.6664 192.965L71.9215 184.629L63.5852 167.374Z" fill="#2B2B2B"/>
<path d="M98.658 184.889L31.771 177.118L24.0002 244.005L90.8872 251.776L98.658 184.889Z" fill="#65A300"/>
<path d="M84.0564 244.107C83.8447 244.107 83.6329 244.001 83.4212 243.79L37.682 186.086C37.3644 185.769 37.4703 185.239 37.7879 184.922C38.1055 184.604 38.6349 184.71 38.9525 185.027L84.6917 242.731C85.0093 243.048 84.9034 243.578 84.5858 243.895C84.4799 244.107 84.2682 244.107 84.0564 244.107Z" fill="white"/>
<path d="M32.3886 238.178C32.1768 238.178 31.9651 238.072 31.7533 237.861C31.4357 237.543 31.5415 237.014 31.8592 236.696L89.5625 190.957C89.8801 190.639 90.4095 190.745 90.7272 191.063C91.0448 191.38 90.9389 191.91 90.6213 192.227L32.918 237.967C32.7062 238.072 32.6003 238.178 32.3886 238.178Z" fill="white"/>
<path d="M79.081 169.781L71.8813 173.593L80.8809 177.193L79.081 169.781Z" fill="#65A300"/>
</g>
</svg>
